<svg width="96.000000pt" height="96.000000pt" viewBox="0 0 96.000000 96.000000" xmlns="http://www.w3.org/2000/svg">
  <g transform="translate(0.000000,96.000000) scale(0.100000,-0.100000)" fill="#0e120e" stroke="none">
    <path d="M2 758 c0 -112 4 -184 7 -161 l6 43 63 -41 62 -42 0 -23 c0 -13 -4
-24 -10 -24 -23 0 -6 -28 39 -62 79 -61 118 -41 41 21 l-40 32 0 39 0 39 -76
50 c-42 28 -69 51 -61 51 7 0 22 9 32 20 22 24 45 26 45 4 l0 -17 41 6 c23 3
45 11 49 18 l8 12 57 -6 56 -6 33 32 33 32 18 54 17 53 28 -30 c15 -17 54 -48
86 -68 l59 -38 45 -3 44 -2 8 12 7 11 20 -18 c25 -23 26 -34 5 -57 -8 -9 -22
-45 -30 -79 -13 -55 -43 -114 -66 -130 -4 -3 -7 -27 -6 -53 l1 -47 18 0 19 0
0 40 0 41 21 22 c27 28 58 95 59 125 l0 22 20 0 c11 0 20 5 20 10 0 15 36 12
50 -5 7 -8 21 -15 31 -15 l19 0 0 -20 0 -20 19 0 c11 0 23 -4 26 -10 3 -5 13
-10 21 -10 l14 0 0 203 -1 202 -22 -48 -22 -48 -12 12 -12 12 11 17 c6 10 8
25 5 34 l-6 16 -181 0 -180 0 0 -15 0 -14 -51 -7 c-28 -4 -57 -13 -65 -21 -8
-8 -14 -10 -14 -5 0 5 -11 14 -25 20 l-25 11 6 16 6 15 -186 0 -186 0 2 -202z" />
    <path d="M390 615 c0 -8 7 -15 15 -15 8 0 15 7 15 15 0 8 -7 15 -15 15 -8 0
-15 -7 -15 -15z" />
    <path d="M620 340 l0 -30 15 0 15 0 0 30 0 30 -15 0 -15 0 0 -30z" />
    <path d="M420 110 l0 -20 15 0 15 0 0 20 0 20 -15 0 -15 0 0 -20z" />
    <path d="M360 65 c0 -8 7 -15 15 -15 8 0 15 7 15 15 0 8 -7 15 -15 15 -8 0
-15 -7 -15 -15z" />
    <path d="M420 55 l0 -25 -15 0 c-8 0 -15 -6 -15 -14 l0 -14 36 0 35 0 -5 15
c-3 8 -6 26 -6 39 l0 24 -15 0 -15 0 0 -25z" />
  </g>
  <g transform="translate(0.000000,96.000000) scale(0.100000,-0.100000)" fill="#1e1f17" stroke="none">
    <path d="M410 873 c-8 -15 -16 -32 -18 -37 l-5 -8 32 7 31 7 0 -26 0 -26 -15
0 c-33 0 -46 -65 -15 -75 l20 -6 -6 -25 -6 -24 16 0 c9 0 16 7 16 15 0 8 5 15
11 15 14 0 39 25 39 39 0 6 -11 11 -25 11 l-25 0 0 -12 c0 -7 -6 -4 -12 6
l-11 20 11 4 c7 2 12 10 12 18 0 8 5 14 10 14 20 0 9 46 -18 78 l-28 34 -14
-29z" />
    <path d="M380 795 c0 -8 7 -15 15 -15 8 0 15 7 15 15 0 8 -7 15 -15 15 -8 0
-15 -7 -15 -15z" />
    <path d="M560 766 c0 -15 37 -32 48 -22 6 6 -27 35 -40 36 -5 0 -8 -6 -8 -14z" />
    <path d="M620 751 c0 -5 11 -12 25 -15 l25 -6 0 -15 c0 -18 14 -19 41 -5 l19
11 0 -11 c0 -5 5 -10 10 -10 12 0 13 20 1 39 l-10 15 -23 -11 -23 -10 -13 13
c-14 16 -52 19 -52 5z" />
    <path d="M326 724 c-9 -24 -7 -34 8 -34 13 0 26 20 26 41 0 15 -27 10 -34 -7z" />
    <path d="M560 680 c0 -5 -9 -10 -20 -10 l-20 0 0 -19 c0 -10 -10 -25 -22 -33
l-22 -14 7 -18 7 -18 26 6 c15 4 32 13 40 21 l13 13 38 -9 c56 -12 101 13 64
35 -5 3 -7 15 -4 26 l5 20 -15 0 c-9 0 -19 -4 -22 -10 -3 -5 -15 -10 -26 -10
l-19 0 0 15 c0 8 -7 15 -15 15 -8 0 -15 -4 -15 -10z" />
    <path d="M10 643 c0 -7 6 -13 13 -13 8 0 14 6 14 13 0 8 -6 14 -14 14 -7 0
-13 -6 -13 -14z" />
    <path d="M390 635 c0 -8 7 -15 15 -15 8 0 15 7 15 15 0 8 -7 15 -15 15 -8 0
-15 -7 -15 -15z" />
    <path d="M70 603 c0 -7 6 -13 13 -13 8 0 14 6 14 13 0 8 -6 14 -14 14 -7 0
-13 -6 -13 -14z" />
    <path d="M432 604 c2 -11 11 -20 22 -22 l18 -4 -4 18 c-2 11 -11 20 -22 22
l-18 4 4 -18z" />
    <path d="M310 581 l0 -19 -19 5 c-10 3 -22 0 -25 -6 -4 -6 -19 -11 -34 -11
-15 0 -37 -3 -50 -6 l-23 -7 6 -26 c3 -14 20 -39 38 -54 18 -15 31 -34 29 -42
l-3 -15 16 0 15 0 0 18 c0 27 26 74 55 102 l25 23 0 29 0 28 -15 0 -15 0 0
-19z" />
    <path d="M680 575 c0 -8 5 -15 10 -15 6 0 10 7 10 15 0 8 -4 15 -10 15 -5 0
-10 -7 -10 -15z" />
    <path d="M50 545 c0 -8 7 -15 15 -15 8 0 15 7 15 15 0 8 -7 15 -15 15 -8 0
-15 -7 -15 -15z" />
    <path d="M440 515 c0 -8 7 -15 15 -15 8 0 15 7 15 15 0 8 -7 15 -15 15 -8 0
-15 -7 -15 -15z" />
    <path d="M650 515 c0 -8 4 -15 9 -15 5 0 11 7 15 15 l5 15 -14 0 c-8 0 -15 -7
-15 -15z" />
    <path d="M140 476 c0 -9 7 -19 15 -23 25 -9 27 2 5 22 l-20 18 0 -17z" />
    <path d="M668 473 l-18 -4 0 -34 c0 -43 -9 -65 -26 -65 -8 0 -14 -8 -14 -17 0
-10 -3 -28 -6 -40 l-6 -23 21 0 21 0 0 -15 c0 -8 7 -15 15 -15 l15 0 0 25 c0
14 5 25 10 25 6 0 10 -4 10 -10 0 -5 9 -10 20 -10 11 0 20 -6 20 -13 0 -7 9
-20 20 -30 11 -9 20 -23 20 -31 0 -8 11 -17 25 -20 l25 -6 0 -30 c0 -17 5 -30
10 -30 l10 0 -5 -23 -6 -23 15 -13 c9 -8 16 -26 16 -42 l0 -29 50 0 50 0 0
111 0 110 -14 15 c-8 8 -19 14 -25 14 -6 0 -11 14 -11 30 l0 30 -15 0 c-8 0
-15 4 -15 10 0 19 -35 50 -57 50 l-23 0 -1 18 c-1 9 -1 24 0 32 l1 15 -50 23
c-50 23 -52 23 -82 15z" />
    <path d="M340 430 l0 -20 -16 0 -16 0 5 -19 4 -18 -18 4 -19 5 0 -11 c0 -7 12
-23 28 -36 l27 -25 21 5 21 5 19 -40 c10 -22 22 -40 25 -40 3 0 4 -18 2 -40
l-3 -41 15 -5 c8 -4 15 -13 15 -20 l0 -14 30 -6 c39 -8 38 -23 0 -31 -17 -3
-35 -14 -41 -24 l-10 -19 16 -6 c8 -3 15 -12 15 -20 l0 -14 39 0 39 0 6 16 c3
9 6 20 6 26 l0 10 -24 -6 -24 -6 11 25 c7 14 17 25 24 25 l11 0 7 51 c4 27 5
53 2 56 -3 2 1 23 9 45 8 22 14 53 14 69 l0 29 -15 0 c-8 0 -15 5 -15 10 0 6
6 10 14 10 15 0 26 21 26 52 l0 20 -33 -4 -34 -4 -12 13 c-16 18 -41 16 -41
-2 0 -8 -7 -15 -15 -15 -9 0 -32 7 -52 15 -19 8 -42 15 -49 15 l-14 0 0 -20z
m171 -100 l19 0 0 -19 c0 -11 -4 -23 -10 -26 l-10 -6 0 15 c0 19 -21 21 -38 4
l-12 -12 0 17 c0 20 23 50 28 36 2 -5 12 -9 23 -9z" />
    <path d="M340 285 c0 -8 7 -15 15 -15 8 0 15 7 15 15 0 8 -7 15 -15 15 -8 0
-15 -7 -15 -15z" />
    <path d="M590 235 l0 -25 15 0 15 0 0 25 0 25 -15 0 -15 0 0 -25z" />
    <path d="M650 215 l0 -25 15 0 15 0 0 25 0 25 -15 0 -15 0 0 -25z" />
    <path d="M2 190 c0 -19 2 -27 5 -17 2 9 2 25 0 35 -3 9 -5 1 -5 -18z" />
    <path d="M580 186 c0 -8 8 -17 18 -19 l17 -5 -17 -1 c-22 -1 -24 -31 -3 -31 8
0 15 5 15 10 0 21 18 9 22 -15 l5 -25 -11 0 c-7 0 -17 5 -23 11 -7 7 -19 9
-27 6 l-16 -6 0 -25 c0 -13 6 -26 13 -29 l12 -5 -12 -13 c-7 -7 -13 -19 -13
-26 l0 -13 60 2 c45 1 94 18 52 18 -4 0 -7 26 -6 57 l2 57 11 4 c6 2 11 12 11
23 l0 19 -15 0 c-8 0 -15 -7 -15 -15 0 -8 -4 -15 -10 -15 -5 0 -10 8 -10 19
l0 19 -22 6 c-33 9 -38 8 -38 -8z" />
    <path d="M3 65 c0 -38 2 -53 4 -32 2 20 2 52 0 70 -2 17 -4 1 -4 -38z" />
    <path d="M330 105 l0 -15 20 0 20 0 0 15 0 15 -20 0 -20 0 0 -15z" />
    <path d="M370 41 c0 -20 13 -41 25 -41 l13 0 -3 18 c-2 9 -4 20 -4 25 -1 10
-31 9 -31 -2z" />
  </g>
  <g transform="translate(0.000000,96.000000) scale(0.100000,-0.100000)" fill="#151a13" stroke="none">
    <path d="M900 936 c0 -45 27 -60 47 -26 l13 19 -19 11 c-27 14 -41 13 -41 -4z" />
    <path d="M430 870 c0 -5 7 -10 16 -10 l15 0 -6 10 c-3 6 -10 10 -16 10 -5 0
-9 -4 -9 -10z" />
    <path d="M457 833 l-19 -5 5 -26 5 -26 -13 -12 c-7 -7 -16 -10 -21 -6 -5 4 -1
-2 9 -14 9 -11 14 -24 10 -27 -3 -4 3 -7 15 -7 26 0 29 15 5 28 l-16 10 21 6
22 7 0 25 0 25 -12 -7 -13 -7 14 14 14 14 4 -12 c3 -7 11 -13 19 -13 8 0 14
-4 14 -10 0 -5 8 -10 18 -10 l17 1 -35 29 c-19 16 -37 29 -40 29 -3 -1 -13 -3
-23 -6z" />
    <path d="M387 813 c-11 -11 -8 -20 8 -20 8 0 15 6 15 14 0 14 -12 17 -23 6z" />
    <path d="M347 753 c-12 -11 -8 -23 8 -23 8 0 15 7 15 15 0 16 -12 20 -23 8z" />
    <path d="M685 740 c-3 -5 -19 -10 -36 -10 l-29 0 0 -15 0 -15 31 0 c38 0 69
16 69 35 0 17 -26 20 -35 5z" />
    <path d="M290 705 c0 -8 5 -15 12 -15 28 0 -8 -15 -40 -17 -21 -1 -64 -6 -97
-11 l-60 -9 -6 10 c-10 14 -39 1 -39 -18 0 -8 4 -15 10 -15 5 0 26 -17 47 -37
20 -21 33 -32 29 -24 l-9 14 12 -7 c6 -4 10 -15 9 -24 l-3 -17 51 1 c28 1 58
5 65 10 8 4 23 8 33 9 l20 0 2 45 c2 25 5 62 8 83 l4 37 -24 0 -24 0 0 -15z" />
    <path d="M100 696 c0 -9 7 -16 16 -16 17 0 14 22 -4 28 -7 2 -12 -3 -12 -12z" />
    <path d="M720 686 c0 -8 -4 -16 -9 -18 -5 -1 -13 -15 -16 -30 l-7 -28 11 0 c6
0 11 8 11 19 0 10 9 30 21 45 l20 26 -15 0 c-9 0 -16 -6 -16 -14z" />
    <path d="M590 675 c0 -8 7 -15 15 -15 8 0 15 7 15 15 0 8 -7 15 -15 15 -8 0
-15 -7 -15 -15z" />
    <path d="M7 663 c-10 -9 -9 -23 2 -23 5 0 11 7 15 15 5 15 -5 20 -17 8z" />
    <path d="M767 643 c-12 -11 -8 -23 8 -23 8 0 15 7 15 15 0 16 -12 20 -23 8z" />
    <path d="M390 625 c0 -6 7 -12 15 -12 8 0 15 6 15 12 0 6 -7 12 -15 12 -8 0
-15 -6 -15 -12z" />
    <path d="M633 617 c0 -8 6 -14 14 -14 7 0 12 5 10 11 -5 15 -24 18 -24 3z" />
    <path d="M820 605 c0 -8 7 -15 15 -15 8 0 15 7 15 15 0 8 -7 15 -15 15 -8 0
-15 -7 -15 -15z" />
    <path d="M90 590 c0 -5 7 -10 16 -10 l15 0 -6 10 c-3 6 -10 10 -16 10 -5 0 -9
-4 -9 -10z" />
    <path d="M780 590 c0 -5 -13 -10 -29 -10 l-29 0 -6 -17 c-11 -28 -50 -83 -60
-83 -5 0 -3 7 4 15 l12 15 -11 0 c-15 0 -41 -25 -41 -39 l0 -10 17 6 16 6 -8
-12 -8 -13 24 7 c13 4 27 13 31 19 l8 11 0 -11 c0 -7 20 -17 45 -23 25 -6 48
-18 51 -26 4 -8 12 -15 19 -15 8 0 17 -9 20 -20 3 -11 12 -20 19 -20 7 0 19
-11 26 -25 8 -14 24 -28 37 -31 13 -4 23 -10 23 -15 0 -5 5 -9 10 -9 l10 0 0
95 0 95 -17 20 c-10 11 -24 20 -33 20 -8 0 -35 11 -60 23 l-45 22 3 18 3 17
-15 0 c-9 0 -16 -4 -16 -10z" />
    <path d="M30 565 c0 -8 7 -15 15 -15 8 0 15 7 15 15 0 8 -7 15 -15 15 -8 0
-15 -7 -15 -15z" />
    <path d="M522 563 l3 -18 23 -3 22 -3 0 14 c0 14 -20 27 -42 27 -5 0 -8 -8 -6
-17z" />
    <path d="M70 535 c0 -8 11 -21 24 -30 l23 -15 17 6 c20 7 21 24 2 24 -7 0 -19
7 -26 15 -16 19 -40 19 -40 0z" />
    <path d="M660 530 c0 -5 4 -10 9 -10 6 0 13 5 16 10 l6 10 -15 0 c-9 0 -16 -4
-16 -10z" />
    <path d="M430 506 c0 -9 7 -16 16 -16 17 0 14 22 -4 28 -7 2 -12 -3 -12 -12z" />
    <path d="M4 365 c0 -49 1 -71 3 -48 2 23 2 64 0 90 -2 26 -3 8 -3 -42z" />
    <path d="M190 435 c0 -8 6 -15 14 -15 8 0 16 -5 18 -11 2 -7 10 -10 17 -8 l12
4 -30 23 -31 23 0 -16z" />
    <path d="M300 347 c0 -9 5 -17 10 -17 6 0 10 -5 10 -11 0 -7 14 -25 30 -41 17
-15 30 -37 30 -47 0 -10 7 -21 15 -25 8 -3 15 -12 15 -21 0 -17 9 -19 28 -6
16 10 14 20 -10 45 -10 11 -18 26 -18 33 0 7 -4 13 -9 13 -5 0 -13 9 -16 20
-3 11 -11 20 -18 20 -6 0 -24 12 -39 27 l-28 27 0 -17z" />
    <path d="M640 334 l0 -16 -15 12 -15 12 0 -14 c0 -8 5 -19 12 -26 l12 -12 -18
0 -18 0 6 -34 c4 -19 3 -37 -2 -40 -5 -3 -9 -30 -10 -61 l-1 -55 15 0 c8 0 14
6 14 14 0 12 20 26 36 26 2 0 3 -19 2 -42 l-3 -42 18 -4 17 -3 0 45 c0 25 -5
48 -10 51 -6 4 -8 15 -5 26 l6 19 -11 0 -10 0 5 27 4 27 -10 7 c-6 3 -11 27
-11 53 -1 25 -3 46 -5 46 -1 0 -3 -7 -3 -16z" />
    <path d="M310 160 c0 -16 43 -100 51 -100 19 0 18 22 -3 64 -20 41 -48 62 -48
36z" />
    <path d="M420 146 c0 -8 5 -18 11 -21 6 -4 8 -13 5 -21 l-5 -14 15 0 c20 0 28
24 14 49 -12 24 -40 28 -40 7z" />
    <path d="M490 87 c0 -8 7 -14 15 -14 8 0 15 6 15 14 0 7 -7 13 -15 13 -8 0
-15 -6 -15 -13z" />
    <path d="M383 35 c0 -8 7 -15 14 -15 8 0 11 -4 8 -10 l-6 -10 20 0 c11 0 23 5
26 10 3 6 0 10 -8 10 -8 0 -17 7 -21 15 -3 8 -12 15 -19 15 -8 0 -14 -7 -14
-15z" />
    <path d="M646 24 c-8 -21 -3 -26 18 -18 20 8 21 34 2 34 -8 0 -17 -7 -20 -16z" />
  </g>
  <g transform="translate(0.000000,96.000000) scale(0.100000,-0.100000)" fill="#16160f" stroke="none">
    <path d="M357 954 c-15 -15 -6 -34 23 -49 l31 -16 22 7 c12 5 29 8 37 9 36 2
110 33 110 46 0 9 -214 12 -223 3z" />
    <path d="M932 943 c2 -9 9 -18 16 -21 l12 -4 0 21 0 21 -16 0 -15 0 3 -17z" />
    <path d="M896 935 c4 -8 7 -15 9 -15 2 0 5 7 9 15 l5 15 -14 0 -14 0 5 -15z" />
    <path d="M885 900 c-8 -13 13 -40 30 -40 18 0 26 25 12 39 -14 14 -34 14 -42
1z" />
    <path d="M445 780 l7 -23 -11 7 -11 7 0 -20 0 -21 20 0 c11 0 23 7 27 16 l6
16 -12 8 c-7 4 -12 11 -11 16 1 5 -4 10 -10 12 l-12 4 7 -22z" />
    <path d="M348 758 l-33 -33 -78 3 -77 4 0 -17 0 -16 -10 6 c-6 4 -17 2 -25 -5
l-13 -11 5 20 5 21 -24 0 c-14 0 -33 -9 -43 -20 -10 -11 -26 -20 -37 -20 -27
0 -22 -18 12 -35 31 -16 41 -29 15 -19 l-15 6 0 -11 c0 -19 29 -12 41 10 l11
22 7 -10 c7 -10 141 -12 135 -2 -7 11 29 20 39 10 l10 -10 22 9 c13 5 26 6 30
2 4 -4 5 5 2 19 l-7 27 21 5 22 6 -7 16 -6 17 20 5 c11 3 20 12 20 19 0 20 -4
18 -42 -18z" />
    <path d="M642 733 c-6 -2 -10 -8 -7 -13 3 -4 -3 -7 -13 -6 l-17 1 -1 -27 c-1
-16 2 -29 5 -29 3 -1 15 -3 27 -4 l21 -2 -2 33 -1 34 18 0 c10 0 18 5 18 10 0
10 -26 12 -48 3z" />
    <path d="M741 645 c-5 -11 -12 -32 -15 -47 l-6 -28 23 0 c13 0 52 -14 86 -31
34 -17 68 -32 75 -33 16 -2 41 -26 49 -46 3 -8 6 16 6 53 l1 68 -9 -5 c-4 -3
-16 3 -26 14 l-19 20 -8 -12 -8 -13 0 23 0 22 -19 0 c-10 0 -24 6 -30 14 -7 8
-29 16 -51 18 l-39 3 -10 -20z" />
    <path d="M380 625 c0 -8 5 -15 10 -15 6 0 10 7 10 15 0 8 -4 15 -10 15 -5 0
-10 -7 -10 -15z" />
    <path d="M130 566 c0 -9 5 -16 10 -16 6 0 10 4 10 9 0 6 -4 13 -10 16 l-10 6
0 -15z" />
    <path d="M3 500 c0 -41 2 -58 4 -37 2 20 2 54 0 75 -2 20 -4 3 -4 -38z" />
    <path d="M520 553 c0 -7 6 -13 13 -13 8 0 14 6 14 13 0 8 -6 14 -14 14 -7 0
-13 -6 -13 -14z" />
    <path d="M695 523 l-17 -28 23 22 c12 12 20 25 17 28 -3 3 -13 -7 -23 -22z" />
    <path d="M160 512 c0 -10 9 -27 20 -37 l20 -18 0 11 c0 7 -4 12 -10 12 -5 0
-10 9 -10 19 0 11 -4 23 -10 26 l-10 6 0 -19z" />
    <path d="M620 379 c0 -6 7 -17 15 -25 l15 -15 0 25 0 26 -15 0 c-8 0 -15 -5
-15 -11z" />
    <path d="M335 309 c-4 -6 -5 -13 -2 -16 7 -7 27 6 27 18 0 12 -17 12 -25 -2z" />
    <path d="M613 303 c-7 -2 -13 -11 -13 -18 0 -14 17 -15 38 -2 23 15 2 32 -25
20z" />
    <path d="M362 281 l-13 -8 7 -16 c3 -9 12 -17 19 -17 18 0 26 27 12 39 l-13
10 -12 -8z" />
    <path d="M640 262 c0 -11 7 -22 15 -26 l15 -5 0 13 c0 7 -7 19 -15 26 l-15 12
0 -20z" />
    <path d="M604 231 l-2 -30 14 -5 c8 -3 14 -1 14 4 0 6 -6 10 -12 10 l-13 0 12
8 13 8 -13 17 -12 18 -1 -30z" />
    <path d="M646 194 c-7 -27 -1 -43 10 -31 10 10 13 57 4 57 -4 0 -11 -12 -14
-26z" />
    <path d="M410 164 c0 -12 3 -29 6 -38 l6 -15 14 6 c8 3 14 12 14 20 0 8 -4 12
-9 9 -4 -3 -7 5 -6 18 l3 23 -14 0 -14 0 0 -23z" />
    <path d="M660 99 c0 -4 7 -9 15 -13 l15 -5 0 13 c0 7 -7 13 -15 13 -8 0 -15
-4 -15 -8z" />
    <path d="M360 53 c0 -7 7 -13 15 -13 8 0 15 6 15 13 0 8 -7 14 -15 14 -8 0
-15 -6 -15 -14z" />
    <path d="M436 21 c-3 -5 1 -11 9 -15 l15 -5 0 14 c0 16 -16 20 -24 6z" />
  </g>
  <g transform="translate(0.000000,96.000000) scale(0.100000,-0.100000)" fill="#22221b" stroke="none">
    <path d="M410 856 c0 -9 -4 -16 -10 -16 -5 0 -10 -4 -10 -10 0 -5 9 -10 20
-10 l20 0 0 19 c0 11 -4 23 -10 26 l-10 6 0 -15z" />
    <path d="M450 830 c0 -5 4 -11 9 -15 10 -6 8 -50 -3 -77 l-8 -17 -29 6 -29 6
0 -37 0 -36 14 0 14 0 6 -31 c3 -17 10 -28 15 -25 5 4 18 -5 29 -19 20 -26 46
-33 57 -15 3 6 15 10 26 10 10 0 19 4 19 10 l0 10 26 -10 c40 -16 71 7 32 23
l-13 5 17 1 17 1 -5 14 -6 15 -16 -7 -17 -6 17 17 c9 9 21 17 27 17 6 0 11 4
11 8 0 4 14 13 31 19 l30 12 -20 -35 c-23 -38 -26 -54 -11 -54 5 0 17 16 26
35 9 19 20 35 24 35 14 0 8 50 -8 62 l-16 13 7 -18 7 -18 -10 6 c-6 3 -10 2
-10 -3 0 -12 -59 -34 -70 -27 -4 3 -7 -3 -6 -12 l1 -17 -18 -4 -19 -4 12 22
c12 22 55 44 70 35 10 -6 35 24 26 32 -4 4 -16 2 -26 -5 -11 -7 -33 -12 -50
-12 -16 0 -30 -4 -30 -10 0 -5 -6 -10 -13 -10 -7 0 -19 -9 -27 -20 l-14 -20
-26 0 -26 0 2 30 2 30 -11 0 -12 0 14 9 15 10 -10 37 -9 37 -17 3 c-10 1 -18
-2 -18 -6z m30 -115 c0 -8 -7 -15 -16 -15 l-16 0 12 15 c7 8 14 15 16 15 2 0
4 -7 4 -15z m117 -85 c0 -14 -2 -19 -4 -13 l-5 13 -18 -10 -19 -10 -6 10 -6
10 16 0 17 0 -5 13 -5 13 18 0 18 0 -1 -26z m-83 -41 c-3 -5 -10 -7 -15 -3 -5
3 -7 10 -3 15 3 5 10 7 15 3 5 -3 7 -10 3 -15z" />
    <path d="M510 794 c0 -8 7 -14 15 -14 8 0 15 -4 15 -10 0 -5 7 -10 15 -10 25
0 17 18 -15 34 l-30 14 0 -14z" />
    <path d="M420 785 l0 -14 15 5 c8 4 15 10 15 15 0 5 -7 9 -15 9 -8 0 -15 -7
-15 -15z" />
    <path d="M380 755 c0 -8 7 -15 15 -15 8 0 15 7 15 15 0 8 -7 15 -15 15 -8 0
-15 -7 -15 -15z" />
    <path d="M652 630 c1 -16 4 -30 7 -30 4 0 8 14 9 30 1 17 -2 30 -7 30 -5 0 -9
-13 -9 -30z" />
    <path d="M53 633 c-17 -6 -17 -23 0 -23 8 0 14 7 14 15 0 8 -1 15 -1 14 -1 0
-7 -3 -13 -6z" />
    <path d="M63 545 c0 -18 19 -15 25 3 2 7 -3 12 -10 12 -8 0 -15 -7 -15 -15z" />
    <path d="M316 542 c-4 -7 -12 -10 -17 -6 -5 3 -8 0 -7 -7 2 -7 -3 -13 -9 -14
-14 0 -17 -8 -10 -28 l4 -12 27 27 c16 15 26 33 24 40 l-4 12 -8 -12z" />
    <path d="M420 496 c0 -9 7 -16 16 -16 17 0 14 22 -4 28 -7 2 -12 -3 -12 -12z" />
    <path d="M338 471 c-10 -10 -18 -22 -18 -28 0 -8 -41 -33 -55 -33 -3 0 -2 15
1 33 l5 32 -15 -18 c-8 -11 -12 -25 -9 -33 6 -16 -13 -19 -22 -4 -3 6 -10 10
-16 10 -5 0 -9 -4 -9 -10 0 -5 4 -10 9 -10 6 0 22 -11 37 -25 15 -14 33 -24
39 -21 l11 4 1 -21 c1 -11 6 -24 12 -30 l9 -9 22 15 21 15 -9 6 c-6 3 -12 2
-14 -4 l-3 -9 -15 10 -15 9 18 11 18 11 -13 16 c-7 9 -9 14 -4 10 11 -9 46 9
46 23 0 6 -4 7 -10 4 -5 -3 -10 -1 -10 4 0 15 12 14 35 -3 10 -7 27 -11 37 -8
l18 4 0 19 0 20 -30 6 c-16 3 -30 9 -30 14 0 15 -24 9 -42 -10z" />
    <path d="M610 446 l0 -24 -52 14 c-29 7 -65 14 -80 14 l-28 0 0 -15 c0 -18 26
-20 33 -2 l5 12 1 -17 1 -18 -15 0 c-17 0 -20 -16 -5 -25 6 -3 10 -1 10 5 l0
12 16 -6 c9 -4 23 -1 31 6 17 13 53 19 53 7 0 -4 -3 -15 -6 -23 l-6 -17 -14
12 c-8 6 -14 10 -15 8 -1 -2 -3 -21 -4 -42 l-4 -37 11 6 11 7 -6 -17 -7 -18
15 6 c17 6 21 -9 5 -19 -6 -4 -8 -10 -5 -15 3 -5 -3 -13 -12 -19 -10 -6 -13
-11 -7 -11 l10 0 -3 -32 c-2 -18 -4 -63 -6 -100 -1 -36 -5 -64 -9 -62 -3 2 -4
-5 -1 -16 7 -26 30 -25 54 3 10 12 18 17 19 11 0 -6 7 -11 15 -11 17 0 18 6 6
26 -5 7 -13 11 -17 8 -5 -3 -16 2 -24 11 l-14 16 16 -7 17 -6 -6 14 -5 15 -12
-7 c-6 -3 -4 2 5 13 9 10 17 33 17 49 0 17 1 32 2 35 1 3 4 25 6 50 l3 44 -11
13 c-6 8 -8 16 -4 20 3 3 6 2 6 -4 0 -5 6 -10 13 -10 l13 0 -2 29 c-1 15 1 28
5 28 6 0 7 24 3 88 -3 30 -22 28 -22 -2z m0 -88 l0 -33 -10 15 c-13 20 -13 50
0 50 6 0 10 -15 10 -32z m-29 -145 l-10 -18 -1 16 c0 17 10 32 18 25 2 -3 -1
-13 -7 -23z" />
    <path d="M407 402 l-8 -12 14 -15 c14 -14 27 -10 27 7 0 5 -4 7 -9 3 -5 -3
-11 3 -13 12 l-3 18 -8 -13z" />
    <path d="M430 323 c-14 -3 -29 -9 -34 -14 l-9 -8 31 4 c18 2 30 0 27 -5 -6
-10 20 -32 28 -23 4 3 7 17 7 30 l0 23 -12 -1 c-7 -1 -24 -4 -38 -6z" />
    <path d="M670 320 c-14 -3 -26 -11 -28 -18 -1 -8 2 -11 7 -7 l10 6 0 -28 c0
-33 7 -98 11 -98 1 0 4 -24 6 -54 l5 -53 -10 -12 c-12 -15 -8 -49 7 -54 l11
-3 7 47 c4 26 3 81 -3 121 l-9 74 14 -6 c7 -3 18 -5 23 -5 5 0 9 -6 9 -14 0
-8 6 -17 13 -19 l12 -5 -17 -1 c-10 -1 -18 -7 -18 -15 l0 -15 35 -12 c19 -7
35 -18 35 -24 5 -109 8 -114 51 -121 l34 -6 -1 31 c0 16 -7 38 -15 47 -7 9
-12 27 -11 40 l3 24 -10 0 c-6 0 -11 7 -11 16 0 8 4 13 8 10 5 -3 9 1 9 9 l0
15 -34 12 c-18 7 -32 16 -30 22 4 11 -63 83 -72 78 -3 -2 -8 3 -11 10 l-5 14
-25 -6z" />
    <path d="M200 305 c0 -8 4 -15 9 -15 5 0 11 -9 14 -20 6 -23 37 -27 37 -5 0 9
-7 18 -15 21 -8 4 -15 12 -15 20 0 8 -7 14 -15 14 -8 0 -15 -7 -15 -15z" />
    <path d="M461 242 c2 -13 -13 -52 -20 -52 -4 0 -8 -7 -8 -15 l0 -15 19 17 c10
9 21 13 25 10 3 -4 2 -7 -4 -7 -5 0 -10 -6 -10 -14 l0 -15 18 2 c10 1 16 4 13
9 -6 10 32 29 41 20 4 -4 0 6 -11 22 l-18 28 -5 -13 c-7 -17 -31 -23 -31 -9 0
6 5 10 10 10 15 0 12 17 -5 24 -8 3 -14 2 -14 -2z" />
    <path d="M400 185 c0 -8 5 -15 10 -15 6 0 10 7 10 15 0 8 -4 15 -10 15 -5 0
-10 -7 -10 -15z" />
    <path d="M290 175 l0 -15 20 0 20 0 0 15 0 15 -20 0 -20 0 0 -15z" />
    <path d="M410 125 c0 -8 5 -15 10 -15 6 0 10 7 10 15 0 8 -4 15 -10 15 -5 0
-10 -7 -10 -15z" />
    <path d="M457 93 c-4 -3 -7 -13 -7 -20 l0 -14 11 7 12 7 -5 -14 c-3 -8 -11
-13 -17 -12 -16 4 -14 -16 3 -33 17 -17 36 -18 36 -3 0 5 -5 7 -11 3 l-11 -6
4 18 c2 11 10 18 16 17 l12 -3 -4 23 c-3 12 -5 25 -5 30 -1 9 -25 9 -34 0z" />
    <path d="M376 65 c8 -19 24 -19 24 0 0 8 -7 15 -15 15 l-14 0 5 -15z" />
    <path d="M903 63 c-21 -8 -15 -22 7 -16 11 3 20 9 20 14 0 10 -8 10 -27 2z" />
    <path d="M407 17 l-5 -14 14 0 c8 0 14 6 14 14 0 17 -16 17 -23 0z" />
  </g>
  <g transform="translate(0.000000,96.000000) scale(0.100000,-0.100000)" fill="#26261d" stroke="none">
    <path d="M416 855 l7 -28 -18 6 -17 7 6 -26 7 -26 -11 7 -10 6 0 -16 0 -16
-10 6 c-5 3 -10 3 -11 -2 0 -4 -2 -18 -5 -30 l-4 -21 15 -6 15 -5 0 -42 0 -41
15 6 15 5 0 -15 0 -15 -11 7 -11 6 4 -18 c2 -10 11 -20 21 -22 l17 -4 11 31
c6 17 15 29 19 26 5 -3 11 4 15 15 3 11 11 20 17 20 l10 0 -11 -14 c-7 -8 -8
-17 -4 -19 11 -7 35 7 34 18 -1 5 5 10 12 11 8 1 14 -3 13 -10 0 -6 3 -11 9
-11 5 0 8 10 7 22 l-3 22 18 0 c10 1 26 2 35 3 l17 1 -10 19 c-12 23 -38 23
-54 1 l-12 -16 -17 6 -16 6 0 31 0 30 15 0 c8 0 15 5 15 11 l0 11 -19 -5 -20
-5 6 14 5 14 -21 0 -21 0 6 -25 6 -25 -14 5 -14 6 0 -24 0 -24 18 5 18 4 -6
-16 c-3 -9 -12 -16 -19 -16 -7 0 -21 -3 -31 -7 l-17 -6 6 10 7 11 -20 -5 -20
-5 0 21 c0 11 -5 21 -11 21 -5 0 -7 5 -4 10 4 6 11 8 16 5 l9 -6 0 26 0 26 20
-11 c11 -6 20 -9 21 -8 0 2 3 22 5 46 l5 42 -10 0 c-5 0 -17 3 -26 6 l-16 7 7
-28z m38 -190 c-4 -8 -10 -15 -15 -15 -5 0 -9 7 -9 15 0 8 7 15 15 15 l14 0
-5 -15z" />
    <path d="M555 770 c-10 -16 4 -30 28 -30 l22 1 -17 13 c-10 7 -15 16 -11 19 3
4 1 7 -5 7 -6 0 -14 -4 -17 -10z" />
    <path d="M628 753 c-26 -7 -22 -20 7 -25 l25 -5 12 15 13 16 -12 -8 -13 -7 0
10 c0 11 -3 12 -32 4z" />
    <path d="M730 732 c0 -9 -39 -24 -69 -26 -14 -1 -26 -36 -12 -36 4 0 7 -10 8
-21 1 -12 6 -26 12 -32 10 -10 34 0 27 12 -3 4 3 17 14 28 10 12 16 24 13 27
-4 3 1 6 10 6 10 0 17 5 17 11 l0 10 -12 -7 -13 -8 13 16 13 16 -11 7 c-5 3
-10 2 -10 -3z" />
    <path d="M332 698 c-14 -14 -16 -48 -3 -48 9 0 25 49 18 56 -2 2 -9 -2 -15 -8z" />
    <path d="M620 655 c7 -9 15 -13 17 -11 7 7 -7 26 -19 26 l-10 0 12 -15z" />
    <path d="M470 620 c0 -5 8 -14 18 -19 22 -13 7 -14 -17 -2 l-18 10 0 -14 c0
-19 27 -28 43 -14 l14 11 -11 19 c-10 20 -29 26 -29 9z" />
    <path d="M551 603 l11 -13 -19 0 c-19 0 -53 -32 -53 -50 0 -19 28 -10 33 10
l5 20 19 -7 18 -7 -17 -4 c-22 -4 -24 -32 -3 -32 8 0 15 5 15 10 0 6 6 10 14
10 7 0 16 9 19 19 l5 20 36 6 c48 9 46 25 -1 21 -21 -2 -42 -1 -48 2 -5 3 -18
7 -27 7 l-18 2 11 -14z" />
    <path d="M20 598 c0 -17 12 -32 28 -35 13 -3 15 7 6 31 -7 19 -34 22 -34 4z" />
    <path d="M317 597 l-5 -14 14 0 c8 0 14 6 14 14 0 7 -4 13 -9 13 -5 0 -11 -6
-14 -13z" />
    <path d="M110 578 c0 -12 26 -38 38 -38 l10 0 -11 23 c-11 23 -37 33 -37 15z" />
    <path d="M317 543 c3 -7 9 -13 14 -13 5 0 9 6 9 13 0 8 -6 14 -14 14 l-14 0 5
-14z" />
    <path d="M670 544 l0 -15 10 6 c6 3 10 10 10 16 0 5 -4 9 -10 9 -5 0 -10 -7
-10 -16z" />
    <path d="M101 523 l14 -17 -12 8 -13 7 6 -15 c3 -9 12 -16 19 -16 l13 0 -3 18
c-2 9 -4 20 -4 25 -1 4 -8 7 -17 7 l-16 0 13 -17z" />
    <path d="M285 520 c3 -5 0 -20 -8 -32 -7 -13 -13 -43 -12 -67 l1 -44 22 -2
c12 -1 22 2 22 7 0 4 -4 8 -10 8 -17 0 -11 18 9 25 10 3 21 15 24 25 l5 20 36
0 36 0 0 -11 c0 -5 5 -7 10 -4 l10 6 0 -15 c0 -9 7 -16 15 -16 8 0 15 5 15 10
0 6 7 10 16 10 l16 0 -5 -20 c-7 -27 1 -25 13 3 l9 22 1 -25 1 -25 12 17 13
16 27 -5 c27 -5 48 -23 28 -23 -6 0 -11 -12 -11 -26 0 -14 -4 -23 -9 -20 -5 3
-11 0 -14 -8 l-6 -14 21 6 21 5 -8 -14 c-5 -7 -10 -21 -10 -30 l-1 -16 20 1
21 1 1 15 c1 8 2 28 2 43 l2 28 10 -6 10 -6 -2 13 c-2 7 -7 16 -13 20 l-10 8
13 0 c6 0 12 5 12 11 0 5 -4 7 -10 4 l-10 -6 0 25 0 25 25 25 25 25 -10 6
c-12 8 -30 -2 -30 -17 0 -6 -12 -21 -26 -35 l-26 -24 -36 6 c-21 4 -49 9 -64
11 l-28 6 0 18 c0 18 -14 21 -36 7 l-12 -7 -12 15 c-18 21 -50 19 -77 -7 l-23
-21 0 16 c0 9 5 17 10 17 16 0 12 17 -6 24 l-15 6 6 -10z" />
    <path d="M160 450 c0 -5 7 -10 16 -10 l15 0 -6 10 c-3 6 -10 10 -16 10 -5 0
-9 -4 -9 -10z" />
    <path d="M180 335 c0 -8 7 -15 15 -15 8 0 15 7 15 15 0 8 -7 15 -15 15 -8 0
-15 -7 -15 -15z" />
    <path d="M217 303 c-12 -11 -8 -23 8 -23 8 0 15 7 15 15 0 16 -12 20 -23 8z" />
    <path d="M330 293 c0 -7 4 -13 9 -13 5 0 11 6 14 13 l5 14 -14 0 c-8 0 -14 -6
-14 -14z" />
    <path d="M678 268 c-5 -43 -2 -125 5 -121 4 2 7 -18 6 -46 l-2 -50 -9 5 -9 6
7 -28 7 -27 -13 8 -13 8 7 -11 7 -12 71 0 71 0 -6 52 c-4 29 -11 54 -17 56 -5
2 -10 11 -10 21 0 9 -7 26 -16 37 -8 10 -13 13 -9 7 l6 -13 -17 7 -18 7 12 4
c7 2 12 9 12 16 0 19 -48 68 -60 61 l-10 -6 6 15 c3 9 3 16 0 16 -3 0 -7 -6
-8 -12z" />
    <path d="M247 263 c-12 -11 -8 -23 8 -23 8 0 15 7 15 15 0 16 -12 20 -23 8z" />
    <path d="M576 254 c-3 -8 -9 -13 -13 -11 -5 3 -8 -16 -8 -41 0 -26 -4 -55 -8
-66 l-9 -18 11 -11 10 -10 7 16 c3 9 10 15 14 12 5 -3 6 4 3 15 -3 11 -2 31 1
45 l7 26 11 -7 11 -7 -6 17 c-4 10 -7 26 -7 37 0 23 -15 25 -24 3z" />
    <path d="M280 205 c0 -8 7 -15 15 -15 8 0 15 7 15 15 0 8 -7 15 -15 15 -8 0
-15 -7 -15 -15z" />
    <path d="M400 176 c0 -9 5 -16 10 -16 6 0 10 4 10 9 0 6 -4 13 -10 16 l-10 6
0 -15z" />
    <path d="M530 79 l0 -20 10 6 10 6 0 -16 0 -16 -10 6 -10 6 6 -15 6 -16 18 10
c20 11 21 30 1 54 -18 22 -31 20 -31 -5z" />
    <path d="M458 41 l-16 -19 10 -13 10 -14 5 13 c2 6 8 10 12 7 5 -2 6 7 3 20
-5 30 -4 29 -24 6z" />
  </g>
  <g transform="translate(0.000000,96.000000) scale(0.100000,-0.100000)" fill="#2a2a21" stroke="none">
    <path d="M413 903 c-21 -8 -15 -22 17 -38 l30 -16 0 11 c0 5 -5 10 -10 10 -6
0 -14 8 -18 18 -4 11 -13 17 -19 15z" />
    <path d="M430 835 l13 -15 -17 6 -16 6 0 -12 c0 -6 -4 -9 -9 -6 l-9 6 6 -22 5
-21 -14 8 -14 8 13 -14 c6 -7 12 -18 12 -23 l0 -11 -8 11 -7 12 -26 -29 c-23
-25 -24 -49 -1 -36 11 7 10 -77 -1 -84 l-9 -7 9 -28 c5 -16 17 -30 26 -32 l17
-3 0 18 1 18 13 -18 c14 -19 36 -23 36 -7 0 6 5 10 10 10 6 0 10 -7 10 -15 l0
-15 -30 0 -30 0 0 -16 0 -16 25 4 25 5 -11 -13 -11 -14 14 0 c8 0 23 8 34 19
l20 18 32 -5 32 -4 0 22 0 23 18 -16 c10 -10 26 -17 35 -17 l16 0 3 22 3 23
19 3 20 4 -18 -27 c-9 -14 -16 -31 -13 -38 l4 -12 19 30 c10 16 20 43 22 59 1
17 3 42 5 56 l2 25 13 -3 13 -2 -6 10 c-4 6 -1 17 5 25 l12 14 -7 21 -6 20
-18 0 c-10 0 -18 -6 -18 -14 l0 -14 19 3 18 4 0 -15 c0 -8 -6 -13 -12 -11 -7
1 -14 -8 -16 -21 -2 -12 -13 -27 -25 -33 l-22 -11 13 13 c6 7 12 19 12 27 l0
14 -14 -11 c-8 -7 -13 -20 -11 -29 2 -9 4 -24 4 -31 l1 -15 12 12 c7 7 16 12
21 12 20 0 -40 -38 -76 -48 l-37 -10 -1 21 -1 22 -5 -17 c-4 -16 -15 -22 -35
-19 -4 0 -5 -6 -2 -14 4 -8 10 -12 15 -9 5 3 9 0 9 -5 0 -17 -21 -13 -36 7
l-13 17 -1 -13 c0 -7 -5 -10 -10 -7 -6 4 -8 10 -6 14 3 4 -4 8 -15 8 -25 2
-51 22 -43 34 3 5 0 9 -5 9 -6 0 -11 5 -11 11 l0 10 13 -7 12 -7 -12 13 c-6 7
-9 20 -5 29 l6 16 -18 -14 -17 -14 13 -8 13 -9 -14 0 -13 0 12 -15 c7 -8 9
-15 4 -15 -5 0 -3 -4 5 -9 l13 -8 -10 -7 c-6 -4 -15 1 -20 11 -20 37 5 172 29
157 l9 -5 -7 17 -6 17 14 -8 14 -9 -15 19 -15 19 13 -8 12 -7 0 10 c0 18 -12
41 -22 41 l-10 0 12 -15z" />
    <path d="M477 810 c3 -11 9 -18 13 -15 13 8 20 -38 8 -52 l-10 -13 10 0 c6 0
9 -6 6 -13 l-5 -13 24 -11 24 -11 13 8 14 9 18 -10 18 -10 0 15 0 15 -15 -5
c-34 -14 -12 13 25 29 51 22 50 26 -3 20 l-43 -5 -14 18 -15 18 14 -9 14 -8
-7 12 c-5 7 -14 10 -21 7 -7 -2 -23 6 -36 20 -27 29 -39 31 -32 4z" />
    <path d="M320 650 l-11 -20 16 0 15 0 0 20 c0 11 -2 20 -5 20 -2 0 -9 -9 -15
-20z" />
    <path d="M13 633 c-7 -2 -13 -18 -13 -34 l0 -30 16 -6 16 -6 9 14 c12 19 11
32 -2 23 l-11 -6 11 19 c14 28 3 38 -26 26z" />
    <path d="M50 610 c0 -5 7 -10 15 -10 8 0 15 -4 15 -10 0 -5 8 -10 17 -10 l17
0 -22 20 c-23 22 -42 26 -42 10z" />
    <path d="M329 578 c-1 -7 -1 -17 0 -21 1 -5 -14 -26 -33 -48 -18 -22 -38 -57
-43 -77 l-10 -37 22 0 21 0 -6 36 -7 36 16 -4 17 -4 18 20 c25 27 34 26 68 -6
l27 -26 28 -2 c15 -1 53 -6 85 -10 l56 -7 24 24 c12 12 26 22 31 21 11 -4 8
15 -4 23 l-12 7 -16 -20 c-9 -11 -26 -23 -37 -25 l-21 -5 -14 18 c-16 23 -39
25 -39 4 l0 -15 -19 0 c-11 0 -22 6 -25 13 l-6 12 -6 -13 c-8 -17 -24 -5 -17
13 l5 15 -20 0 c-24 0 -62 44 -62 71 0 21 -19 27 -21 7z" />
    <path d="M126 571 c-4 -7 -5 -15 -2 -18 9 -9 19 4 14 18 l-4 13 -8 -13z" />
    <path d="M50 561 c0 -20 13 -41 25 -41 l13 0 -3 18 c-2 9 -4 20 -4 25 -1 10
-31 9 -31 -2z" />
    <path d="M125 521 c-6 -11 9 -23 19 -14 9 9 7 23 -3 23 -6 0 -12 -4 -16 -9z" />
    <path d="M110 490 c0 -5 7 -10 16 -10 l15 0 -6 10 c-3 6 -10 10 -16 10 -5 0
-9 -4 -9 -10z" />
    <path d="M600 415 c0 -8 5 -15 10 -15 6 0 10 7 10 15 0 8 -4 15 -10 15 -5 0
-10 -7 -10 -15z" />
    <path d="M600 381 c0 -6 5 -13 10 -16 l10 -6 0 15 c0 9 -4 16 -10 16 -5 0 -10
-4 -10 -9z" />
    <path d="M594 332 c3 -6 2 -12 -4 -14 -6 -2 -2 -8 8 -15 l19 -11 -2 21 c-1 11
-7 23 -15 25 l-13 5 7 -11z" />
    <path d="M190 315 c0 -8 5 -15 10 -15 6 0 10 -7 10 -15 0 -8 5 -15 10 -15 6 0
10 -7 10 -15 0 -8 9 -20 20 -27 11 -7 20 -18 20 -25 0 -7 6 -13 13 -13 8 0 14
7 14 15 0 8 -4 15 -9 15 -4 0 -8 9 -8 19 0 10 -7 22 -16 25 l-15 6 7 -13 8
-12 -16 13 -17 13 6 15 5 15 -13 -3 -14 -3 3 18 3 17 -16 0 c-8 0 -15 -7 -15
-15z" />
    <path d="M350 266 c0 -9 5 -16 10 -16 6 0 10 4 10 9 0 6 -4 13 -10 16 l-10 6
0 -15z" />
    <path d="M300 155 c0 -8 6 -15 13 -15 8 0 14 7 14 15 0 8 -6 15 -14 15 -7 0
-13 -7 -13 -15z" />
    <path d="M337 133 c-11 -11 -8 -20 8 -20 8 0 15 6 15 14 0 14 -12 17 -23 6z" />
    <path d="M703 118 c-5 -7 -10 -26 -12 -42 l-3 -29 17 6 16 7 -7 -11 c-3 -6
-15 -8 -26 -6 l-19 5 11 -13 c7 -8 9 -19 5 -26 l-7 -11 18 4 c11 2 18 10 16
16 l-2 13 25 -17 25 -16 0 16 0 17 -10 -6 c-5 -3 -10 -1 -10 4 0 6 5 11 10 11
14 0 12 19 -4 35 l-13 14 -10 -10 -9 -9 2 30 c2 33 1 36 -13 18z" />
    <path d="M340 86 c0 -6 5 -18 10 -26 l10 -15 9 14 c5 8 7 19 5 26 -6 15 -34
15 -34 1z" />
    <path d="M440 29 c0 -4 7 -9 15 -13 l15 -5 0 13 c0 7 -7 13 -15 13 -8 0 -15
-4 -15 -8z" />
    <path d="M770 22 c0 -12 19 -26 26 -19 2 2 -2 10 -11 17 l-15 12 0 -10z" />
  </g>
  <g transform="translate(0.000000,96.000000) scale(0.100000,-0.100000)" fill="#1b1c15" stroke="none">
    <path d="M443 855 l-13 -14 9 -24 c6 -14 8 -27 5 -29 -2 -3 3 -5 11 -5 l15 0
-10 12 c-5 6 -7 25 -5 43 5 36 5 36 -12 17z" />
    <path d="M677 753 c-3 -5 -2 -15 2 -22 l9 -13 5 9 c3 5 2 15 -2 22 l-8 13 -6
-9z" />
    <path d="M390 738 c0 -7 11 -18 24 -24 l24 -11 13 8 c7 4 14 14 15 22 2 16
-12 17 -35 2 l-15 -9 -4 12 c-5 16 -22 15 -22 0z" />
    <path d="M581 653 c8 -10 18 -21 22 -24 5 -3 8 -10 7 -15 -1 -5 4 -10 11 -13
l12 -4 -7 12 -7 11 18 1 18 1 -12 4 c-7 3 -11 11 -9 17 1 7 1 9 -1 5 -8 -15
-25 -8 -19 7 l5 15 -26 0 -25 0 13 -17z" />
    <path d="M310 626 c0 -8 5 -18 10 -21 l10 -6 0 20 c0 12 -4 21 -10 21 -5 0
-10 -6 -10 -14z" />
    <path d="M421 597 l-11 -14 15 0 c8 0 15 6 15 14 0 7 -2 13 -4 13 -2 0 -9 -6
-15 -13z" />
    <path d="M100 581 c0 -11 26 -22 34 -14 3 4 6 11 6 17 0 6 -5 4 -10 -4 l-10
-15 0 13 c0 6 -4 12 -10 12 -5 0 -10 -4 -10 -9z" />
    <path d="M47 563 c-10 -9 -9 -23 2 -23 5 0 11 7 15 15 5 15 -5 20 -17 8z" />
    <path d="M290 557 c0 -4 -4 -6 -9 -2 -5 3 -13 1 -16 -5 l-7 -11 -14 12 -14 11
0 -11 c0 -6 4 -11 9 -11 5 0 13 -9 16 -21 l7 -20 19 17 c10 9 16 21 13 25 -3
5 2 9 10 9 8 0 17 4 20 8 2 4 -4 8 -15 8 -10 0 -19 -4 -19 -9z m-14 -34 c-10
-10 -19 5 -10 18 l8 13 4 -13 c2 -7 1 -15 -2 -18z" />
    <path d="M546 551 l-20 -8 22 -5 22 -6 0 14 c0 8 -1 14 -2 13 -2 0 -12 -4 -22
-8z" />
    <path d="M162 519 c1 -29 11 -38 23 -20 3 5 0 13 -7 17 l-12 7 19 7 19 7 -21
5 -22 6 1 -29z" />
    <path d="M422 517 l-2 -24 15 0 c8 0 12 4 9 8 -2 4 0 10 6 14 13 8 3 25 -13
25 -7 0 -14 -10 -15 -23z" />
    <path d="M107 516 l-6 -15 15 6 c7 3 14 9 14 14 0 14 -17 10 -23 -5z" />
    <path d="M205 509 c-4 -6 -4 -13 -1 -16 3 -4 6 -1 6 5 0 6 8 13 18 15 l17 5
-17 1 c-9 0 -20 -4 -23 -10z" />
    <path d="M636 487 c3 -9 11 -17 18 -17 l11 0 -14 -9 c-17 -11 -6 -31 17 -31
l17 0 -14 9 c-7 5 -11 13 -8 19 4 5 -3 18 -14 28 l-20 18 7 -17z" />
    <path d="M677 480 c2 -9 11 -17 19 -17 21 0 17 24 -5 30 l-18 4 4 -17z" />
    <path d="M741 447 c9 -7 19 -21 22 -32 l5 -20 1 18 c0 9 6 17 12 17 5 0 7 -4
4 -10 l-6 -10 25 0 26 0 0 -25 0 -25 17 0 16 0 -18 -20 c-10 -11 -15 -23 -12
-27 4 -3 7 -3 7 2 0 4 8 1 18 -6 l17 -14 -14 18 c-7 9 -10 17 -6 17 14 0 75
-41 75 -51 0 -5 7 -9 15 -9 31 0 13 43 -22 54 -12 4 -27 20 -34 35 l-13 29
-13 -5 -12 -5 -7 27 c-3 14 -11 24 -17 22 -6 -2 -19 5 -29 15 -10 10 -30 18
-45 18 l-28 -1 16 -12z" />
    <path d="M370 410 c0 -6 9 -20 19 -31 l19 -21 7 12 7 12 -21 19 c-23 21 -31
24 -31 9z" />
    <path d="M914 404 c3 -9 6 -18 6 -20 0 -2 9 -4 20 -4 11 0 20 4 20 8 0 13 -23
32 -38 32 l-14 0 6 -16z" />
    <path d="M504 385 c1 -8 7 -20 13 -26 l11 -11 6 11 c4 6 2 11 -3 11 -6 0 -11
7 -11 15 0 8 -4 15 -9 15 -5 0 -8 -7 -7 -15z" />
    <path d="M775 370 l-6 -10 15 0 c9 0 16 5 16 10 0 6 -4 10 -9 10 -6 0 -13 -4
-16 -10z" />
    <path d="M463 359 l-23 -8 6 -16 c3 -8 10 -15 15 -15 5 0 9 -10 9 -21 l0 -21
15 12 c17 14 21 0 4 -17 l-12 -12 22 6 22 6 -3 16 c-1 9 1 22 5 29 10 14 2 29
-21 41 l-17 9 -22 -9z" />
    <path d="M314 328 c-5 -8 14 -21 36 -25 8 -1 16 -7 18 -13 2 -6 11 -17 19 -26
8 -8 13 -18 9 -21 -3 -3 2 -12 12 -20 l17 -14 -15 7 -15 7 8 -8 c4 -5 15 -10
24 -11 9 -2 20 -10 25 -18 5 -9 14 -16 21 -16 l12 0 -15 10 -15 9 13 21 12 20
-15 0 c-8 0 -15 -4 -15 -10 0 -5 -4 -10 -10 -10 -5 0 -7 7 -4 15 4 8 12 15 20
15 8 0 14 3 14 8 0 8 -48 32 -65 32 -5 0 -16 13 -23 30 l-14 30 -25 -2 c-13
-2 -27 -6 -29 -10z" />
    <path d="M627 312 l-16 -18 20 -1 c10 -1 17 2 14 7 -3 4 0 10 7 12 l12 4 -11
7 c-6 4 -18 -1 -26 -11z" />
    <path d="M895 259 l-7 -10 19 -5 20 -6 -5 -25 -5 -25 22 18 c26 23 27 40 2 54
-25 13 -38 13 -46 -1z" />
    <path d="M264 229 c-3 -6 -2 -15 2 -19 l9 -9 14 8 c7 5 10 14 7 20 -9 14 -23
14 -32 0z" />
    <path d="M290 200 l-15 -9 10 -10 10 -10 15 9 15 9 -10 10 -10 10 -15 -9z" />
    <path d="M616 188 c-3 -13 -6 -36 -7 -53 l0 -30 -9 20 c-10 23 -11 21 -16 -17
-1 -15 1 -30 7 -33 l9 -6 -6 14 -5 14 23 -1 23 -1 3 23 c2 12 8 22 13 22 15 0
10 26 -10 49 l-19 21 -6 -22z" />
    <path d="M491 175 c1 -5 1 -17 0 -24 l-1 -15 -12 12 c-7 7 -20 12 -29 12 l-17
0 5 -20 5 -20 14 17 13 18 1 -12 c0 -7 -9 -22 -21 -34 l-21 -21 6 -14 c7 -19
22 -18 30 3 l7 17 10 -14 9 -15 10 15 c14 22 12 3 -2 -21 l-13 -22 13 -4 c6
-3 12 -9 12 -14 0 -4 -7 -6 -15 -3 l-15 6 0 -11 c0 -6 9 -11 20 -11 l20 0 1
18 c4 45 4 140 0 136 -2 -2 -10 4 -18 14 -7 9 -13 13 -12 7z" />
    <path d="M930 165 c0 -8 4 -15 8 -15 5 0 9 7 9 15 0 8 -4 15 -9 15 -4 0 -8 -7
-8 -15z" />
    <path d="M322 151 l-13 -8 7 -16 c3 -9 10 -17 14 -17 12 0 19 25 11 38 l-7 11
-12 -8z" />
    <path d="M653 109 l-12 -12 10 -25 10 -25 -11 -11 c-5 -5 -10 -16 -10 -23 l0
-12 15 6 c9 3 13 8 11 11 -3 3 0 12 7 20 l12 15 -12 4 -11 4 5 30 c5 32 3 35
-14 18z" />
    <path d="M365 80 c3 -5 10 -10 16 -10 5 0 9 5 9 10 0 6 -7 10 -16 10 l-15 0 6
-10z" />
    <path d="M434 31 c0 -11 4 -17 8 -15 4 3 8 12 8 20 0 8 -4 14 -8 14 -4 0 -8
-9 -8 -19z" />
  </g>
  <g transform="translate(0.000000,96.000000) scale(0.100000,-0.100000)" fill="#1f1d16" stroke="none">
    <path d="M416 895 c-3 -8 -1 -15 3 -15 5 0 11 7 15 15 3 8 1 15 -3 15 -5 0
-11 -7 -15 -15z" />
    <path d="M424 829 l-7 -12 11 7 10 6 5 -17 5 -18 1 17 c1 21 -15 32 -25 17z" />
    <path d="M680 740 c0 -11 2 -20 4 -20 2 0 6 9 9 20 3 11 1 20 -4 20 -5 0 -9
-9 -9 -20z" />
    <path d="M512 578 c-15 -15 -16 -28 -2 -28 6 0 10 6 10 14 0 8 6 17 13 19 l12
5 -10 1 c-6 1 -16 -4 -23 -11z" />
    <path d="M364 414 c3 -8 6 -18 6 -20 0 -2 9 -4 21 -4 l21 0 -6 -15 c-3 -8 -3
-22 0 -30 l6 -16 13 11 13 11 7 -11 c4 -6 4 -22 1 -35 l-6 -24 20 2 20 1 0 19
c0 11 -12 28 -26 39 l-25 20 5 15 6 14 -9 -6 c-5 -3 -12 -1 -16 5 -3 6 1 13 9
16 20 8 21 24 1 24 -8 0 -14 -5 -12 -12 1 -6 -6 -14 -17 -16 l-18 -4 6 10 c3
5 -1 13 -10 16 l-16 6 6 -16z" />
    <path d="M503 401 l-12 -18 12 -12 12 -12 -17 6 -18 7 0 -10 c0 -5 10 -12 22
-15 l22 -6 -17 -19 c-9 -10 -14 -22 -10 -26 5 -4 9 -12 9 -17 1 -5 2 -12 3
-16 0 -3 10 2 20 11 l19 17 -5 22 -5 22 12 -15 11 -15 -3 20 c-2 11 -10 20
-18 21 -31 2 -33 4 -15 18 11 8 24 12 29 9 l9 -6 -8 12 -7 13 -10 -10 c-6 -6
-17 -8 -25 -5 l-15 6 12 7 c7 4 11 13 9 19 l-4 11 -12 -19z" />
    <path d="M783 400 c6 -22 -8 -37 -18 -20 -7 12 -25 4 -25 -11 0 -5 12 -9 28
-9 30 1 56 -4 89 -15 l22 -7 -11 -24 c-14 -29 -4 -42 17 -24 9 7 15 9 14 4 -1
-5 -1 -20 0 -34 l1 -25 8 12 8 13 20 -15 19 -14 -17 -1 c-10 0 -18 -5 -18 -11
l0 -11 16 6 c9 3 18 6 20 6 2 0 4 11 4 25 l0 25 -48 50 c-27 28 -54 50 -60 50
-7 0 -11 3 -11 8 1 4 1 15 0 25 l-1 17 -31 0 -31 0 5 -20z" />
    <path d="M690 393 c0 -5 11 -9 25 -9 14 -1 25 2 25 7 0 5 -11 9 -25 9 -14 0
-25 -3 -25 -7z" />
    <path d="M381 348 l-1 -16 -22 6 -22 5 22 -23 c12 -13 22 -30 22 -37 0 -7 7
-13 15 -13 8 0 15 -5 15 -12 l0 -12 13 13 12 12 -18 10 c-9 6 -15 14 -12 20 4
5 2 9 -4 9 -5 0 -12 12 -14 28 -2 15 -5 20 -6 10z" />
    <path d="M727 333 c-6 -5 36 -33 49 -33 2 0 4 10 4 23 l0 22 -9 -14 -9 -15
-15 12 c-7 7 -17 9 -20 5z" />
    <path d="M3 240 c0 -25 2 -35 4 -22 2 12 2 32 0 45 -2 12 -4 2 -4 -23z" />
    <path d="M830 231 c0 -5 7 -11 14 -14 l15 -6 -6 15 c-6 15 -23 19 -23 5z" />
    <path d="M500 213 c0 -5 5 -15 10 -23 l10 -15 0 23 c0 12 -4 22 -10 22 -5 0
-10 -3 -10 -7z" />
    <path d="M3 145 l0 -40 4 23 c2 12 2 30 0 40 -3 9 -5 -1 -4 -23z" />
    <path d="M940 170 l15 -10 -12 0 c-18 0 -16 -17 2 -24 l15 -5 0 24 0 25 -17 0
-18 0 15 -10z" />
    <path d="M424 159 c-3 -5 6 -9 20 -9 31 0 34 6 6 13 -11 3 -23 1 -26 -4z" />
    <path d="M630 135 c-7 -8 -9 -15 -4 -15 4 0 -2 -9 -14 -20 -29 -28 -28 -30 11
-17 42 15 42 14 28 31 -7 8 -10 20 -6 26 9 15 -1 12 -15 -5z" />
    <path d="M510 125 c0 -8 -6 -15 -14 -15 -22 0 -28 -17 -12 -33 8 -8 12 -18 8
-22 -4 -5 -1 -5 6 -1 l12 7 1 -13 c1 -7 1 -17 0 -22 -1 -5 5 -4 13 4 9 7 16
25 16 41 l0 29 -11 0 -11 0 5 20 c3 11 1 20 -4 20 -5 0 -9 -7 -9 -15z m10 -33
c0 -13 -12 -22 -22 -16 -10 6 -1 24 13 24 5 0 9 -4 9 -8z" />
    <path d="M430 86 c0 -10 4 -15 9 -12 5 4 12 0 14 -6 l5 -13 1 11 c1 6 -6 17
-14 24 l-15 12 0 -16z" />
    <path d="M620 13 c0 -7 7 -13 15 -13 8 0 15 6 15 13 0 8 -7 14 -15 14 -8 0
-15 -6 -15 -14z" />
  </g>
  <g transform="translate(0.000000,96.000000) scale(0.100000,-0.100000)" fill="#323227" stroke="none">
    <path d="M400 891 c0 -10 30 -24 37 -17 3 2 -5 9 -16 16 l-21 11 0 -10z" />
    <path d="M400 774 l0 -15 10 6 c6 3 10 10 10 16 0 5 -4 9 -10 9 -5 0 -10 -7
-10 -16z" />
    <path d="M510 765 c0 -17 7 -41 16 -53 l16 -23 19 22 c24 27 24 27 -6 27 l-25
0 7 -11 6 -10 -13 8 -13 8 18 13 c10 8 15 17 12 21 -4 3 -7 2 -7 -2 0 -5 -7 0
-15 11 l-14 19 -1 -30z" />
    <path d="M359 761 c-1 -3 -1 -10 0 -14 1 -4 -6 -22 -16 -40 -30 -58 -17 -165
25 -199 l15 -13 -7 28 -6 27 13 0 c8 0 29 -7 47 -16 l33 -17 14 18 13 19 0
-13 c0 -7 -11 -22 -25 -33 -14 -11 -24 -25 -23 -32 2 -6 -1 -11 -7 -11 -5 0
-10 8 -9 18 l1 17 -18 0 -17 0 5 -18 c6 -24 38 -43 58 -36 l16 7 -5 14 c-3 8
1 22 10 30 l16 16 -4 -33 -3 -33 18 -3 c9 -1 17 2 17 7 0 5 5 9 11 9 5 0 7 -5
3 -11 l-6 -11 37 5 38 5 24 31 c14 17 29 29 34 26 5 -4 6 0 4 7 -3 8 3 23 14
35 11 11 17 23 14 27 -3 3 0 12 6 20 l13 15 -8 12 -7 12 -18 -24 -18 -24 -23
14 -23 14 13 -16 13 -15 -10 -6 c-6 -4 -7 -14 -4 -23 l6 -16 -14 5 c-8 3 -13
11 -11 17 l2 12 -19 -10 c-10 -6 -21 -7 -25 -4 -3 3 -6 -1 -6 -10 l0 -17 -17
0 c-10 0 -24 4 -32 9 l-13 9 11 6 c17 11 13 26 -4 20 -8 -4 -22 -1 -30 6 -8 7
-15 9 -15 4 0 -4 -7 1 -15 12 l-14 19 -1 -17 c0 -22 -13 -23 -30 -3 -7 8 -9
15 -5 15 4 0 2 6 -4 13 -6 8 -8 17 -4 21 4 4 1 11 -7 16 l-15 9 12 19 12 19
-9 9 -9 9 9 15 10 15 0 -13 c0 -7 4 -10 10 -7 l10 6 -12 13 c-12 13 -37 17
-39 7z" />
    <path d="M683 703 c-15 -6 -17 -33 -3 -33 6 0 10 -5 10 -11 l0 -10 -12 7 -11
7 7 -11 c10 -17 14 -15 30 17 19 35 11 48 -21 34z" />
    <path d="M0 607 l0 -46 19 -6 c10 -3 26 -3 35 1 l17 7 -5 14 -6 14 13 -7 c6
-4 22 -16 34 -27 12 -10 27 -17 33 -15 l11 3 -39 36 -40 35 -16 -12 -16 -11 6
-18 7 -17 -21 11 c-12 7 -22 14 -22 17 0 3 5 2 10 -1 14 -9 12 8 -2 24 l-13
14 13 -8 14 -7 -4 17 c-1 10 -9 20 -15 23 l-13 4 0 -45z" />
    <path d="M83 536 l0 -14 14 5 c17 7 17 23 0 23 -8 0 -14 -6 -14 -14z" />
    <path d="M120 480 c0 -5 7 -10 16 -10 l15 0 -6 10 c-3 6 -10 10 -16 10 -5 0
-9 -4 -9 -10z" />
    <path d="M170 439 c0 -6 9 -13 20 -16 11 -3 20 -9 20 -14 0 -5 7 -9 16 -9 l17
0 -27 25 c-29 27 -46 32 -46 14z" />
    <path d="M250 380 c0 -5 7 -10 16 -10 l15 0 -6 10 c-3 6 -10 10 -16 10 -5 0
-9 -4 -9 -10z" />
    <path d="M160 370 c0 -5 5 -20 11 -34 l12 -25 18 2 c11 1 19 8 19 15 l0 14
-16 -6 -15 -6 6 9 c8 14 -5 41 -21 41 -8 0 -14 -4 -14 -10z" />
    <path d="M227 287 l-5 -14 14 0 c8 0 14 6 14 14 0 17 -16 17 -23 0z" />
    <path d="M267 237 l-5 -14 14 0 c8 0 14 6 14 14 0 17 -16 17 -23 0z" />
    <path d="M370 235 c0 -9 5 -15 11 -13 6 2 11 8 11 13 0 5 -5 11 -11 13 -6 2
-11 -4 -11 -13z" />
    <path d="M400 165 c0 -8 7 -15 16 -15 l16 0 -12 15 c-7 8 -14 15 -16 15 -2 0
-4 -7 -4 -15z" />
    <path d="M330 151 c0 -6 5 -13 10 -16 l10 -6 0 15 c0 9 -4 16 -10 16 -5 0 -10
-4 -10 -9z" />
    <path d="M310 136 c0 -9 5 -16 10 -16 6 0 10 4 10 9 0 6 -4 13 -10 16 l-10 6
0 -15z" />
    <path d="M410 110 l0 -20 15 0 16 0 -11 20 c-6 11 -13 20 -15 20 -3 0 -5 -9
-5 -20z" />
    <path d="M360 95 c0 -8 5 -15 10 -15 6 0 10 7 10 15 0 8 -4 15 -10 15 -5 0
-10 -7 -10 -15z" />
    <path d="M408 70 c-2 -6 -13 -12 -26 -13 l-22 -1 0 -14 0 -13 19 6 19 6 16
-23 c9 -12 16 -20 17 -18 0 3 2 22 3 43 l2 37 -12 0 c-7 0 -14 -5 -16 -10z" />
  </g>
  <g transform="translate(0.000000,96.000000) scale(0.100000,-0.100000)" fill="#12140e" stroke="none">
    <path d="M890 952 c0 -5 16 -13 35 -19 l35 -11 0 9 c0 5 -6 9 -12 9 l-13 0 15
10 15 10 -37 0 c-21 0 -38 -4 -38 -8z" />
    <path d="M352 935 c1 -10 9 -20 16 -21 7 -1 8 0 2 3 -5 2 -8 9 -5 13 3 5 0 12
-6 15 l-11 7 4 -17z" />
    <path d="M890 915 l-14 -17 11 -16 c5 -10 18 -19 28 -20 l18 -4 -14 15 c-8 8
-18 13 -24 10 -5 -2 -1 3 9 11 l20 16 -10 10 -11 11 -13 -16z" />
    <path d="M926 901 c-4 -7 -5 -15 -2 -18 9 -9 19 4 14 18 l-4 13 -8 -13z" />
    <path d="M386 814 c-4 -14 -5 -28 -3 -31 3 -2 8 8 11 23 4 14 5 28 3 31 -3 2
-8 -8 -11 -23z" />
    <path d="M680 760 c0 -5 12 -10 26 -10 l25 0 -6 10 c-3 6 -15 10 -26 10 -10 0
-19 -4 -19 -10z" />
    <path d="M183 723 c9 -8 47 -11 47 -4 0 5 -11 9 -25 9 -14 0 -24 -2 -22 -5z" />
    <path d="M786 711 c-3 -5 1 -14 8 -20 l14 -12 -5 20 c-6 23 -9 25 -17 12z" />
    <path d="M45 700 c-4 -6 -10 -8 -14 -6 -4 3 -13 1 -21 -5 l-15 -9 21 0 c12 0
27 7 34 15 7 8 10 15 7 15 -3 0 -9 -5 -12 -10z" />
    <path d="M843 634 c9 -11 14 -23 11 -27 -3 -3 2 -5 13 -4 24 1 27 27 3 27 -9
0 -22 6 -30 13 -8 6 -7 3 3 -9z" />
    <path d="M910 592 c0 -6 9 -16 19 -22 l20 -10 7 12 7 13 -8 -8 c-5 -4 -17 0
-27 10 l-18 16 0 -11z" />
    <path d="M140 537 c0 -8 7 -14 15 -14 8 0 15 6 15 14 0 7 -7 13 -15 13 -8 0
-15 -6 -15 -13z" />
    <path d="M370 246 c0 -3 9 -19 19 -37 l19 -31 7 13 8 12 -19 14 c-10 8 -18 17
-16 21 2 3 -1 8 -7 10 -6 2 -11 1 -11 -2z" />
    <path d="M310 170 c-8 -5 -12 -11 -9 -14 2 -3 11 -1 19 4 8 5 12 11 9 14 -2 3
-11 1 -19 -4z" />
    <path d="M420 85 c0 -8 5 -15 10 -15 6 0 10 7 10 15 0 8 -4 15 -10 15 -5 0
-10 -7 -10 -15z" />
    <path d="M381 52 l-10 -19 14 -19 c7 -10 17 -16 21 -11 4 4 2 7 -6 7 l-12 0
12 15 13 15 -19 -7 -19 -7 14 17 c8 10 11 20 8 23 -3 3 -10 -3 -16 -14z" />
  </g>
  <g transform="translate(0.000000,96.000000) scale(0.100000,-0.100000)" fill="#b0a499" stroke="none">
    <path d="M57 373 c-4 -3 -7 -15 -7 -25 l0 -18 19 0 c50 0 71 32 29 44 -29 7
-33 7 -41 -1z" />
    <path d="M103 293 c-23 -4 -33 -33 -12 -33 l11 0 -16 -25 c-9 -13 -16 -31 -16
-40 0 -9 -7 -18 -16 -22 l-15 -6 6 -26 c4 -14 11 -29 17 -32 l9 -6 -15 -16
c-20 -20 -20 -37 -1 -37 l15 0 0 -25 0 -25 65 1 64 2 7 20 6 20 -27 23 -28 24
6 36 c8 47 11 50 41 30 l25 -16 11 -42 c16 -58 110 -138 110 -92 0 10 -22 49
-40 69 -10 11 -20 32 -24 47 -3 15 -17 38 -29 50 -13 13 -30 38 -38 56 -7 17
-20 32 -26 32 -7 0 -13 6 -13 14 0 8 -7 17 -16 20 -16 6 -24 6 -61 -1z" />
  </g>
  <g transform="translate(0.000000,96.000000) scale(0.100000,-0.100000)" fill="#a69b8f" stroke="none">
    <path d="M76 345 c-9 -19 -21 -35 -26 -35 -6 0 -10 -14 -10 -30 l0 -31 -16 -6
-15 -6 2 -48 c2 -27 0 -52 -4 -55 -4 -4 -7 -36 -7 -71 l0 -63 59 0 60 0 7 12
7 11 -10 -6 c-6 -4 -18 2 -28 13 -10 11 -15 20 -10 20 4 0 2 7 -6 16 l-13 16
15 9 c8 5 19 10 24 12 l10 4 -8 9 -8 8 -9 -14 -10 -15 0 18 0 18 -12 -7 -11
-7 6 16 6 17 -12 0 c-6 0 -1 7 11 16 12 8 22 21 21 27 -3 17 22 65 37 71 34
13 81 -23 75 -57 -1 -5 3 -6 9 -2 l10 6 0 -15 c0 -9 5 -16 11 -16 5 0 7 -4 4
-10 l-6 -10 16 0 17 0 -5 -13 -5 -14 14 0 c15 0 20 23 7 29 -5 2 -19 25 -33
51 -14 26 -37 59 -52 73 -16 13 -28 30 -28 37 0 14 -43 57 -58 57 -5 0 -17
-16 -26 -35z" />
    <path d="M280 100 c0 -11 0 -22 0 -25 0 -3 3 -5 8 -6 4 0 13 -5 20 -11 l12
-11 -11 -14 -12 -13 15 5 15 6 6 -15 c7 -18 27 -22 27 -6 0 14 -63 109 -72
109 -5 1 -8 -8 -8 -19z" />
  </g>
  <g transform="translate(0.000000,96.000000) scale(0.100000,-0.100000)" fill="#3a3a2f" stroke="none">
    <path d="M685 689 c-4 -6 -5 -13 -2 -16 7 -7 27 6 27 18 0 12 -17 12 -25 -2z" />
    <path d="M328 637 c-3 -14 -1 -30 3 -34 5 -5 10 -17 12 -28 2 -11 11 -35 20
-52 l18 -33 25 0 26 0 -5 20 -5 20 10 0 10 0 -12 15 c-6 8 -9 19 -6 24 4 6 -3
15 -14 21 l-21 11 7 11 7 11 -11 -7 -12 -7 0 22 0 21 -14 -11 -14 -12 -10 17
-9 16 -5 -25z m60 -47 l23 -30 -21 0 -20 0 -10 26 c-18 46 -4 48 28 4z m22
-60 c0 -11 -4 -20 -9 -20 -5 0 -7 9 -4 20 3 11 7 20 9 20 2 0 4 -9 4 -20z" />
    <path d="M16 624 l19 -29 -18 14 -17 13 0 -11 c0 -6 5 -12 10 -12 21 -3 26 -6
69 -47 45 -42 64 -48 68 -21 l3 14 -65 50 c-79 60 -93 66 -69 29z" />
    <path d="M684 596 c-3 -9 -12 -16 -19 -16 -12 0 -25 -21 -25 -41 l0 -10 20 11
c11 6 18 15 15 21 -4 5 -2 9 3 9 11 0 25 30 17 38 -2 3 -7 -3 -11 -12z" />
    <path d="M505 570 l-7 -11 -21 6 -22 6 19 -12 18 -11 16 16 c9 9 13 16 10 16
-4 0 -10 -5 -13 -10z" />
    <path d="M10 560 c0 -5 7 -10 16 -10 l15 0 -6 10 c-3 6 -10 10 -16 10 -5 0 -9
-4 -9 -10z" />
    <path d="M523 543 c-7 -2 -13 -9 -13 -14 l0 -10 37 3 36 3 5 15 5 15 -14 -12
c-7 -7 -21 -13 -32 -13 l-18 0 6 10 c7 11 6 11 -12 3z" />
    <path d="M70 522 c0 -13 23 -32 39 -32 l14 0 -18 20 c-19 21 -35 26 -35 12z" />
    <path d="M600 523 c0 -11 -59 -40 -72 -35 -4 1 -5 -5 -1 -14 l6 -15 10 10 c6
6 26 11 44 11 l33 0 -3 20 c-3 21 -17 40 -17 23z" />
    <path d="M470 511 c0 -6 5 -11 11 -11 5 0 7 -5 4 -10 l-7 -11 -14 12 c-20 16
-28 5 -14 -20 l11 -21 22 0 23 0 0 32 -1 33 -17 3 c-10 2 -18 -1 -18 -7z" />
    <path d="M132 468 c3 -7 13 -15 24 -17 l18 -3 -13 16 c-16 19 -34 21 -29 4z" />
    <path d="M190 420 c0 -5 7 -10 16 -10 l15 0 -6 10 c-3 6 -10 10 -16 10 -5 0
-9 -4 -9 -10z" />
    <path d="M230 396 c0 -9 7 -16 15 -16 8 0 15 -4 15 -10 0 -5 7 -10 15 -10 8 0
15 -7 15 -15 0 -8 5 -15 10 -15 20 0 9 19 -30 50 l-40 32 0 -16z" />
    <path d="M150 379 l0 -21 13 4 c6 3 13 12 15 21 l3 17 -15 0 -16 0 0 -21z" />
    <path d="M177 363 c-11 -11 -8 -20 8 -20 8 0 15 6 15 14 0 14 -12 17 -23 6z" />
    <path d="M320 306 c0 -9 5 -16 10 -16 6 0 10 4 10 9 0 6 -4 13 -10 16 l-10 6
0 -15z" />
    <path d="M200 293 c0 -7 5 -13 10 -13 6 0 10 -7 10 -15 0 -19 16 -19 24 0 l5
15 -12 -3 c-7 -1 -11 5 -11 14 1 9 -5 16 -12 16 -8 0 -14 -6 -14 -14z" />
    <path d="M360 248 c0 -10 4 -18 9 -18 5 0 11 -9 14 -20 3 -11 10 -20 16 -20
17 0 13 12 -14 45 l-25 30 0 -17z" />
    <path d="M260 213 c0 -7 5 -13 10 -13 6 0 10 -7 10 -15 0 -19 16 -19 24 0 l5
15 -12 -3 c-7 -1 -11 5 -11 14 1 9 -5 16 -12 16 -8 0 -14 -6 -14 -14z" />
    <path d="M320 171 c0 -6 5 -13 10 -16 l10 -6 0 15 c0 9 -4 16 -10 16 -5 0 -10
-4 -10 -9z" />
    <path d="M370 162 l0 -20 22 -5 c12 -4 24 -4 27 -1 9 8 -15 39 -33 42 l-16 3
0 -19z" />
    <path d="M320 120 c0 -16 23 -60 32 -60 11 0 10 7 -7 40 -16 30 -25 38 -25 20z" />
    <path d="M370 101 c0 -10 7 -24 15 -31 l15 -12 0 31 0 31 -15 0 -15 0 0 -19z" />
    <path d="M410 85 l0 -26 10 6 c6 3 10 12 10 20 0 8 -4 17 -10 20 l-10 6 0 -26z" />
  </g>
  <g transform="translate(0.000000,96.000000) scale(0.100000,-0.100000)" fill="#222316" stroke="none">
    <path d="M319 453 l-14 -16 20 10 c11 6 25 8 32 6 6 -2 14 1 18 6 l6 11 -24 0
c-14 0 -31 -7 -38 -17z" />
    <path d="M430 440 c0 -5 -7 -10 -15 -10 -18 0 -20 -16 -3 -26 l11 -7 -7 11
c-8 13 6 16 18 5 8 -8 56 -16 56 -9 0 8 -43 46 -52 46 -4 0 -8 -4 -8 -10z" />
    <path d="M499 378 c15 -20 41 -24 41 -7 0 5 -5 7 -10 4 -6 -4 -19 -1 -28 7
l-17 13 14 -17z" />
    <path d="M657 299 l6 -21 8 14 c13 19 11 28 -5 28 l-14 0 5 -21z" />
    <path d="M724 284 c3 -9 6 -18 6 -20 0 -15 16 0 17 16 l2 20 -16 0 -15 0 6
-16z" />
    <path d="M673 240 c0 -8 4 -18 9 -21 5 -3 11 -15 13 -25 6 -30 7 -30 13 -6 7
24 27 31 27 10 0 -7 5 -16 12 -21 6 -4 15 -22 18 -40 4 -17 12 -35 17 -38 6
-4 11 -27 12 -53 l1 -46 23 0 c12 0 22 5 22 10 0 6 -7 10 -15 10 l-15 0 -1 28
c-2 25 -3 40 -7 85 l-2 17 -17 1 -18 1 13 5 c14 5 17 43 3 43 -5 0 -12 -6 -14
-12 l-5 -13 -1 18 c-1 9 -5 17 -11 17 -5 0 -10 6 -10 13 0 6 -15 17 -33 23
l-34 10 0 -16z" />
    <path d="M465 230 l-20 -9 23 0 c12 -1 22 4 22 9 0 6 -1 10 -2 9 -2 0 -12 -4
-23 -9z" />
    <path d="M705 130 c3 -5 12 -7 20 -3 21 7 19 13 -6 13 l-20 0 6 -10z" />
    <path d="M877 43 c7 -17 23 -17 23 0 0 8 -6 14 -14 14 l-14 0 5 -14z" />
  </g>
  <g transform="translate(0.000000,96.000000) scale(0.100000,-0.100000)" fill="#baada2" stroke="none">
    <path d="M66 372 c-2 -4 -1 -13 3 -20 l7 -12 19 20 18 20 -21 0 c-11 0 -23 -4
-26 -8z" />
    <path d="M166 195 l6 -15 -12 0 -12 0 5 -14 6 -15 -17 6 -17 6 13 -14 c14 -15
17 -43 3 -34 -5 3 -13 0 -17 -6 l-7 -12 10 6 c6 4 13 0 17 -8 l5 -14 -17 -11
-17 -12 18 6 18 6 -6 -23 -6 -22 8 12 c9 13 38 12 50 -2 l8 -8 -14 8 -14 8 7
-18 6 -18 -13 11 c-14 12 -27 7 -27 -10 0 -4 36 -8 80 -8 l80 0 0 14 c0 8 -7
16 -15 20 l-15 5 6 15 5 14 -22 15 -22 16 6 20 5 21 -9 -6 c-8 -5 -13 10 -10
29 1 5 -3 6 -8 3 -5 -4 -22 5 -37 19 -31 29 -36 31 -28 10z" />
  </g>
  <g transform="translate(0.000000,96.000000) scale(0.100000,-0.100000)" fill="#9f9489" stroke="none">
    <path d="M46 385 c-15 -14 -32 -25 -37 -25 l-10 0 2 -154 2 -153 19 19 20 20
-6 14 -6 15 -12 -7 -13 -8 14 17 c7 9 11 24 7 32 l-5 15 12 0 12 0 -10 8 c-6
4 -12 17 -12 29 l-2 21 16 6 15 6 -6 -15 c-3 -8 -2 -15 3 -15 9 0 26 63 24 88
0 6 5 12 12 12 7 0 16 6 18 13 l5 12 12 -15 12 -15 -6 18 c-9 28 14 19 25 -10
5 -15 18 -33 29 -40 10 -7 33 -39 52 -71 l33 -57 3 19 c2 11 -2 24 -10 30 -9
6 -18 21 -22 34 -4 12 -12 22 -17 22 -5 0 -9 6 -9 14 0 8 -11 24 -25 37 -13
13 -25 29 -25 35 0 13 -63 74 -77 74 -5 0 -22 -11 -37 -25z m72 -34 l5 -14
-11 7 c-6 3 -13 0 -16 -6 l-6 -13 -6 13 c-3 6 -10 10 -15 6 -11 -6 -12 9 -2
20 11 11 46 2 51 -13z" />
    <path d="M270 135 c0 -10 49 -83 60 -90 18 -11 11 14 -15 55 -22 34 -45 52
-45 35z" />
  </g>
  <g transform="translate(0.000000,96.000000) scale(0.100000,-0.100000)" fill="#505045" stroke="none">
    <path d="M0 567 c0 -6 23 -34 50 -60 28 -27 50 -53 50 -59 0 -10 30 -68 40
-78 3 -3 12 -18 20 -35 9 -16 24 -31 34 -33 l17 -4 -25 41 c-34 54 -33 67 1
16 l26 -39 10 25 9 24 9 -30 c5 -16 7 -37 4 -45 l-4 -15 34 -40 34 -40 -2 45
c-2 25 -7 52 -11 59 l-9 13 22 -7 c29 -9 26 5 -7 40 -62 66 -104 88 -116 63
-3 -7 -4 -4 -1 8 l5 20 -67 55 c-37 30 -80 62 -95 71 l-28 18 0 -13z" />
    <path d="M389 558 c0 -2 -2 -12 -4 -22 l-4 -20 17 -12 c23 -17 29 -10 24 26
l-4 30 -14 0 c-8 0 -14 -1 -15 -2z" />
    <path d="M466 505 c-10 -8 -15 -18 -12 -23 8 -14 46 -3 46 14 0 20 -13 24 -34
9z" />
    <path d="M354 248 c3 -13 6 -38 6 -55 0 -36 6 -39 33 -19 l18 14 -27 41 c-30
46 -39 52 -30 19z" />
    <path d="M250 229 c0 -8 16 -41 35 -73 19 -32 35 -60 35 -62 0 -14 47 -74 58
-74 l13 0 -19 28 c-10 15 -33 54 -51 87 -17 33 -40 71 -51 85 l-20 25 0 -16z" />
    <path d="M330 162 c0 -5 14 -28 30 -50 17 -23 30 -46 30 -52 0 -5 5 -10 10
-10 l10 0 0 60 0 60 -10 0 c-5 0 -10 -4 -10 -10 0 -5 -9 -10 -20 -10 -11 0
-20 5 -20 10 0 6 -4 10 -10 10 -5 0 -10 -4 -10 -8z" />
  </g>
  <g transform="translate(0.000000,96.000000) scale(0.100000,-0.100000)" fill="#5d5c51" stroke="none">
    <path d="M0 552 c0 -5 17 -25 39 -45 21 -19 48 -56 61 -81 12 -25 26 -46 30
-46 5 0 10 -10 12 -22 3 -25 29 -31 36 -9 l5 14 -13 -8 -13 -8 7 11 c3 6 1 14
-6 19 -7 4 -19 18 -26 31 l-12 22 21 0 20 0 -6 -10 c-3 -5 -1 -10 5 -10 6 0 8
-4 5 -10 -3 -5 -1 -10 5 -10 6 0 8 -4 5 -10 -3 -5 -1 -10 4 -10 6 0 11 -7 11
-15 0 -8 5 -15 10 -15 6 0 10 -6 10 -13 0 -16 44 -60 52 -51 3 3 0 28 -7 55
-7 27 -14 52 -14 54 -2 12 -16 5 -22 -12 l-8 -18 -2 20 c-1 11 -3 25 -3 32 -1
6 -10 21 -20 32 l-19 21 -15 -13 -16 -12 7 20 7 20 -14 -17 c-19 -26 -24 -22
-20 13 l4 31 -13 -11 -14 -11 -27 29 c-15 16 -26 32 -24 37 1 4 -7 9 -19 10
-13 2 -23 0 -23 -4z" />
    <path d="M270 343 l0 -14 11 7 11 7 -6 -21 c-4 -12 -2 -30 3 -41 l11 -20 -10
-6 -10 -6 0 17 0 18 -12 -13 -13 -12 17 -13 c10 -7 15 -16 11 -19 -3 -4 -1 -7
5 -7 7 0 12 -6 12 -12 1 -20 55 -75 73 -75 21 0 21 1 2 38 -9 16 -14 42 -13
57 l3 27 -22 3 -23 3 -5 25 c-3 13 -7 35 -10 47 l-5 24 -15 0 c-8 0 -15 -7
-15 -14z" />
    <path d="M190 295 c0 -8 5 -15 10 -15 6 0 10 -6 10 -14 0 -7 7 -20 17 -27 9
-8 23 -30 32 -49 27 -57 72 -130 82 -130 13 0 12 5 -11 45 -11 19 -17 35 -15
35 3 0 -4 9 -15 20 -12 12 -18 25 -15 30 4 6 3 10 -2 10 -4 1 -24 25 -43 55
-36 56 -50 67 -50 40z" />
    <path d="M320 296 c0 -9 7 -19 15 -23 25 -9 27 2 5 22 l-20 18 0 -17z" />
    <path d="M386 185 l-5 -15 14 0 c16 0 20 16 6 24 -5 3 -11 -1 -15 -9z" />
    <path d="M360 104 c8 -8 22 -20 32 -25 l18 -10 0 20 0 19 -20 -5 -20 -5 0 11
c0 6 -5 11 -11 11 l-11 0 12 -16z" />
    <path d="M370 15 c0 -8 7 -15 15 -15 l14 0 -5 15 c-8 19 -24 19 -24 0z" />
  </g>
  <g transform="translate(0.000000,96.000000) scale(0.100000,-0.100000)" fill="#444439" stroke="none">
    <path d="M27 546 l-6 -15 15 6 15 6 27 -24 27 -24 -29 33 c-33 36 -41 39 -49
18z" />
    <path d="M383 549 c-15 -15 -5 -46 18 -52 26 -7 24 10 -3 24 l-21 12 24 13 24
13 -15 1 c-9 0 -21 -5 -27 -11z" />
    <path d="M474 509 l-7 -12 11 7 12 7 0 -10 c0 -6 -7 -11 -16 -11 -9 0 -14 -5
-12 -12 7 -20 22 -19 35 1 l12 19 -14 12 -13 11 -8 -12z" />
    <path d="M200 421 c25 -23 48 -41 52 -41 3 0 11 -12 16 -27 l10 -28 1 18 1 18
13 -6 c14 -7 -11 14 -49 41 -15 11 -41 30 -58 42 -17 13 -11 5 14 -17z" />
    <path d="M134 435 l6 -18 -12 -15 -13 -15 28 17 c33 22 33 22 5 37 l-21 11 7
-17z" />
    <path d="M156 394 c-19 -19 -21 -35 -3 -31 6 1 12 -6 12 -15 0 -26 11 -30 26
-11 8 9 9 14 3 10 l-12 -7 -5 14 c-3 7 0 20 6 27 l12 13 -17 -13 c-20 -15 -25
-2 -6 17 7 7 9 12 6 12 -4 0 -14 -7 -22 -16z" />
    <path d="M201 311 l-13 -8 11 -22 12 -22 11 7 11 7 -17 13 -17 12 18 11 c10 6
14 10 8 11 -5 0 -16 -4 -24 -9z" />
    <path d="M387 196 l-7 -19 11 -13 11 -14 -11 0 c-6 0 -11 -10 -10 -22 l0 -23
9 20 10 20 -1 -45 c-1 -64 0 -70 11 -70 l10 0 -1 53 c0 28 -6 70 -13 92 l-12
40 -7 -19z" />
    <path d="M372 18 c2 -6 10 -13 16 -14 l13 -3 -11 6 c-5 2 -8 9 -4 14 3 5 0 9
-6 9 -7 0 -10 -5 -8 -12z" />
  </g>
  <g transform="translate(0.000000,96.000000) scale(0.100000,-0.100000)" fill="#69665b" stroke="none">
    <path d="M0 552 c0 -6 18 -31 39 -56 22 -25 47 -55 55 -68 25 -36 29 -13 5 29
-24 40 -99 112 -99 95z" />
    <path d="M130 376 c0 -9 5 -16 10 -16 6 0 10 4 10 9 0 6 -4 13 -10 16 l-10 6
0 -15z" />
    <path d="M243 325 c0 -27 2 -38 4 -22 2 15 2 37 0 50 -2 12 -4 0 -4 -28z" />
    <path d="M160 325 c0 -8 9 -20 20 -27 11 -7 20 -18 20 -25 0 -6 3 -13 8 -15 4
-1 18 -24 31 -50 13 -27 28 -48 33 -48 4 0 8 -6 8 -13 0 -19 27 -53 35 -45 4
4 -1 19 -12 35 -10 15 -24 40 -30 55 -12 26 -101 148 -109 148 -2 0 -4 -7 -4
-15z" />
    <path d="M303 300 c3 -19 8 -46 12 -60 l7 -25 -11 15 -11 15 0 -12 c0 -21 23
-63 31 -57 5 3 9 -3 9 -13 0 -11 6 -28 14 -38 l13 -19 2 62 c1 69 -7 95 -44
137 l-26 30 4 -35z" />
    <path d="M330 70 c0 -19 28 -60 41 -60 16 0 10 18 -16 47 l-24 28 -1 -15z" />
  </g>
  <g transform="translate(0.000000,96.000000) scale(0.100000,-0.100000)" fill="#938b80" stroke="none">
    <path d="M18 439 l-18 -19 0 -66 0 -65 9 5 c5 4 8 17 7 30 l-3 23 16 -1 c8 0
16 5 16 12 0 6 4 11 8 10 5 -2 13 5 19 15 l10 19 34 -33 c19 -18 34 -39 34
-45 0 -7 6 -17 13 -21 13 -8 97 -129 97 -140 0 -3 15 -29 33 -57 18 -28 39
-63 47 -78 11 -24 30 -38 30 -23 0 11 -48 94 -82 144 -21 30 -38 59 -38 65 0
6 -18 35 -40 64 -22 29 -52 71 -67 95 -52 84 -91 104 -125 66z" />
  </g>
  <g transform="translate(0.000000,96.000000) scale(0.100000,-0.100000)" fill="#857e72" stroke="none">
    <path d="M0 471 l0 -49 14 -5 15 -6 6 20 c12 38 36 19 120 -95 45 -59 115
-173 115 -185 0 -5 4 -11 8 -13 13 -5 52 -65 52 -80 0 -7 9 -24 20 -38 l20
-25 0 13 c0 13 -7 26 -77 134 -24 37 -43 71 -43 75 0 4 -21 35 -46 68 -24 33
-59 84 -75 113 -37 64 -91 122 -113 122 l-16 0 0 -49z" />
    <path d="M350 229 l0 -20 10 6 c5 3 7 12 3 20 -7 21 -13 19 -13 -6z" />
  </g>
  <g transform="translate(0.000000,96.000000) scale(0.100000,-0.100000)" fill="#757065" stroke="none">
    <path d="M6 542 c-12 -12 -5 -31 14 -37 11 -3 27 -13 35 -22 31 -31 23 -7 -10
29 -18 20 -36 34 -39 30z" />
    <path d="M95 436 c10 -14 19 -26 22 -26 7 0 -17 39 -28 46 -6 3 -3 -5 6 -20z" />
    <path d="M309 278 l5 -33 4 24 c2 13 0 27 -5 32 l-10 10 6 -33z" />
    <path d="M219 255 c17 -33 31 -51 31 -40 0 6 -10 21 -21 35 l-20 25 10 -20z" />
    <path d="M403 110 c0 -25 2 -35 4 -22 2 12 2 32 0 45 -2 12 -4 2 -4 -23z" />
    <path d="M357 20 c3 -11 12 -20 21 -20 l15 0 -18 20 c-10 11 -19 20 -21 20 -1
0 0 -9 3 -20z" />
  </g>
  <g transform="translate(0.000000,96.000000) scale(0.100000,-0.100000)" fill="#cec3ba" stroke="none">
    <path d="M177 153 c-12 -11 -8 -20 11 -25 18 -5 45 15 35 26 -8 8 -38 8 -46
-1z" />
  </g>
</svg>