<?xml version="1.0" encoding="UTF-8"?>
<!DOCTYPE svg PUBLIC "-//W3C//DTD SVG 1.1//EN" "http://www.w3.org/Graphics/SVG/1.1/DTD/svg11.dtd">
<svg xmlns="http://www.w3.org/2000/svg" version="1.1" width="96px" height="96px" style="shape-rendering:geometricPrecision; text-rendering:geometricPrecision; image-rendering:optimizeQuality; fill-rule:evenodd; clip-rule:evenodd" xmlns:xlink="http://www.w3.org/1999/xlink">
<g><path style="opacity:1" fill="#0e130e" d="M -0.5,-0.5 C 11.5,-0.5 23.5,-0.5 35.5,-0.5C 35.4606,0.583168 35.1272,1.58317 34.5,2.5C 36.3198,3.8829 38.3198,4.8829 40.5,5.5C 40.2934,10.5609 38.9601,15.2275 36.5,19.5C 35.8333,19.5 35.5,19.8333 35.5,20.5C 33.0771,20.4236 31.2438,21.4236 30,23.5C 26.9765,21.8597 24.3098,22.1931 22,24.5C 21.6924,23.6919 21.1924,23.0253 20.5,22.5C 18.891,23.8883 17.0577,24.8883 15,25.5C 13.85,24.5761 12.85,24.5761 12,25.5C 11.3828,24.5509 11.5494,23.7175 12.5,23C 8.20229,21.5404 5.20229,22.8738 3.5,27C 2.20677,27.49 0.873441,27.6567 -0.5,27.5C -0.5,18.1667 -0.5,8.83333 -0.5,-0.5 Z"/></g>
<g><path style="opacity:1" fill="#16130f" d="M 35.5,-0.5 C 42.8333,-0.5 50.1667,-0.5 57.5,-0.5C 56.6521,1.09307 55.3187,2.25974 53.5,3C 51.324,3.16294 49.4907,3.99627 48,5.5C 45.7655,4.01982 43.9321,4.35315 42.5,6.5C 41.8333,6.16667 41.1667,5.83333 40.5,5.5C 38.3198,4.8829 36.3198,3.8829 34.5,2.5C 35.1272,1.58317 35.4606,0.583168 35.5,-0.5 Z"/></g>
<g><path style="opacity:1" fill="#0e130e" d="M 57.5,-0.5 C 70.1667,-0.5 82.8333,-0.5 95.5,-0.5C 95.5,12.5 95.5,25.5 95.5,38.5C 92.7081,38.5479 90.8747,37.2146 90,34.5C 88.9125,36.9316 88.4125,36.5983 88.5,33.5C 85.7147,33.067 83.3813,31.7337 81.5,29.5C 79.2593,29.8812 76.926,30.0479 74.5,30C 72.8207,32.5645 72.154,35.3979 72.5,38.5C 70.2661,41.7622 67.9328,45.0956 65.5,48.5C 64.6314,50.717 64.298,53.0504 64.5,55.5C 64.7214,58.2788 64.388,60.9455 63.5,63.5C 62.8333,63.5 62.5,63.1667 62.5,62.5C 62.5,61.1667 62.5,59.8333 62.5,58.5C 62.5,55.1667 62.5,51.8333 62.5,48.5C 64.3247,46.1969 66.1581,43.8636 68,41.5C 68.8215,38.8832 69.3215,36.2165 69.5,33.5C 70.3431,30.4838 71.8431,27.8171 74,25.5C 74.9337,20.9167 73.1004,19.4167 68.5,21C 69.8333,21.3333 71.1667,21.6667 72.5,22C 70.5101,23.7506 68.1768,24.7506 65.5,25C 63.6269,25.9529 63.2935,27.1196 64.5,28.5C 64.44,29.0431 64.1067,29.3764 63.5,29.5C 61.7869,29.1207 60.7869,28.1207 60.5,26.5C 61.8989,23.6097 64.2323,22.1097 67.5,22C 56.9794,20.3038 48.6461,15.1371 42.5,6.5C 43.9321,4.35315 45.7655,4.01982 48,5.5C 49.4907,3.99627 51.324,3.16294 53.5,3C 55.3187,2.25974 56.6521,1.09307 57.5,-0.5 Z"/></g>
<g><path style="opacity:1" fill="#151710" d="M 35.5,20.5 C 34.528,23.1316 33.1947,25.4649 31.5,27.5C 29.5979,28.3679 27.7645,29.3679 26,30.5C 24.7387,30.2409 23.7387,29.5742 23,28.5C 20.3333,29.8333 17.6667,31.1667 15,32.5C 14.6924,31.6919 14.1924,31.0253 13.5,30.5C 12.2638,31.2458 10.9305,31.5792 9.5,31.5C 9.28099,32.675 9.61432,33.675 10.5,34.5C 11.6956,34.1543 11.6956,33.6543 10.5,33C 11.635,32.2506 12.635,32.4173 13.5,33.5C 13.2907,34.086 12.9574,34.586 12.5,35C 14.0854,37.0693 15.4187,39.236 16.5,41.5C 16.67,42.8221 16.3366,43.9887 15.5,45C 18.7768,47.7663 21.4434,50.933 23.5,54.5C 17.8983,51.2295 12.8983,47.2295 8.5,42.5C 10.3146,43.6298 12.3146,44.2964 14.5,44.5C 14.6602,42.8008 14.4935,41.1341 14,39.5C 9.28629,35.9461 4.45295,32.6128 -0.5,29.5C -0.5,28.8333 -0.5,28.1667 -0.5,27.5C 0.873441,27.6567 2.20677,27.49 3.5,27C 5.20229,22.8738 8.20229,21.5404 12.5,23C 11.5494,23.7175 11.3828,24.5509 12,25.5C 12.85,24.5761 13.85,24.5761 15,25.5C 17.0577,24.8883 18.891,23.8883 20.5,22.5C 21.1924,23.0253 21.6924,23.6919 22,24.5C 24.3098,22.1931 26.9765,21.8597 30,23.5C 31.2438,21.4236 33.0771,20.4236 35.5,20.5 Z"/></g>
<g><path style="opacity:1" fill="#26251d" d="M 40.5,5.5 C 41.1667,5.83333 41.8333,6.16667 42.5,6.5C 48.6461,15.1371 56.9794,20.3038 67.5,22C 64.2323,22.1097 61.8989,23.6097 60.5,26.5C 59.5041,26.4142 58.6708,26.7476 58,27.5C 57.6667,26.8333 57.3333,26.1667 57,25.5C 55.4301,26.614 54.0968,27.9474 53,29.5C 52.6667,28.8333 52.3333,28.1667 52,27.5C 49.5688,30.417 48.4021,33.7503 48.5,37.5C 45.5446,35.6137 42.2113,34.6137 38.5,34.5C 37.5816,30.7884 37.5816,27.1218 38.5,23.5C 37.6236,23.6309 36.9569,23.2975 36.5,22.5C 37.6527,21.3132 37.6527,20.3132 36.5,19.5C 38.9601,15.2275 40.2934,10.5609 40.5,5.5 Z"/></g>
<g><path style="opacity:1" fill="#1b1c14" d="M 38.5,23.5 C 38.3505,22.448 38.5172,21.448 39,20.5C 39.6667,21.8333 40.3333,21.8333 41,20.5C 42.3426,18.1609 43.676,15.8276 45,13.5C 46.6636,16.2893 46.8302,19.1227 45.5,22C 48.0658,23.6256 47.8991,25.1256 45,26.5C 44.6827,24.6992 44.016,24.3659 43,25.5C 41.8904,23.9632 40.3904,23.2965 38.5,23.5 Z"/></g>
<g><path style="opacity:1" fill="#202019" d="M 60.5,26.5 C 60.7869,28.1207 61.7869,29.1207 63.5,29.5C 64.1067,29.3764 64.44,29.0431 64.5,28.5C 65.3058,29.9972 65.9724,31.6639 66.5,33.5C 62.5549,36.5712 58.2216,37.5712 53.5,36.5C 53.4802,38.143 54.1468,39.4763 55.5,40.5C 55.1667,40.8333 54.8333,41.1667 54.5,41.5C 53.3578,40.1738 52.0245,39.1738 50.5,38.5C 49.5084,38.6716 48.8417,38.3382 48.5,37.5C 48.4021,33.7503 49.5688,30.417 52,27.5C 52.3333,28.1667 52.6667,28.8333 53,29.5C 54.0968,27.9474 55.4301,26.614 57,25.5C 57.3333,26.1667 57.6667,26.8333 58,27.5C 58.6708,26.7476 59.5041,26.4142 60.5,26.5 Z"/></g>
<g><path style="opacity:1" fill="#16170f" d="M 95.5,38.5 C 95.5,41.8333 95.5,45.1667 95.5,48.5C 94.2921,47.7659 92.9587,47.4326 91.5,47.5C 91.5875,44.4017 91.0875,44.0684 90,46.5C 89.6667,45.5 89.3333,44.5 89,43.5C 88.6667,43.8333 88.3333,44.1667 88,44.5C 85.1003,42.3638 81.9336,40.6971 78.5,39.5C 77.9017,38.2054 77.4017,36.8721 77,35.5C 76.5172,36.448 76.3505,37.448 76.5,38.5C 75.1667,38.5 73.8333,38.5 72.5,38.5C 72.154,35.3979 72.8207,32.5645 74.5,30C 76.926,30.0479 79.2593,29.8812 81.5,29.5C 83.3813,31.7337 85.7147,33.067 88.5,33.5C 88.4125,36.5983 88.9125,36.9316 90,34.5C 90.8747,37.2146 92.7081,38.5479 95.5,38.5 Z"/></g>
<g><path style="opacity:1" fill="#151b13" d="M 31.5,27.5 C 31.3424,30.9023 31.6758,34.2356 32.5,37.5C 32.7373,38.791 32.404,39.791 31.5,40.5C 30.1779,40.67 29.0113,40.3366 28,39.5C 27.3109,40.3567 26.4776,41.0233 25.5,41.5C 22.681,41.2577 19.681,41.2577 16.5,41.5C 15.4187,39.236 14.0854,37.0693 12.5,35C 12.9574,34.586 13.2907,34.086 13.5,33.5C 12.635,32.4173 11.635,32.2506 10.5,33C 11.6956,33.6543 11.6956,34.1543 10.5,34.5C 9.61432,33.675 9.28099,32.675 9.5,31.5C 10.9305,31.5792 12.2638,31.2458 13.5,30.5C 14.1924,31.0253 14.6924,31.6919 15,32.5C 17.6667,31.1667 20.3333,29.8333 23,28.5C 23.7387,29.5742 24.7387,30.2409 26,30.5C 27.7645,29.3679 29.5979,28.3679 31.5,27.5 Z"/></g>
<g><path style="opacity:1" fill="#35382f" d="M -0.5,29.5 C 4.45295,32.6128 9.28629,35.9461 14,39.5C 14.4935,41.1341 14.6602,42.8008 14.5,44.5C 12.3146,44.2964 10.3146,43.6298 8.5,42.5C 6.49981,40.329 4.66647,37.9957 3,35.5C 2.48672,36.5266 1.98672,37.5266 1.5,38.5C 0.833333,38.1667 0.166667,37.8333 -0.5,37.5C -0.5,34.8333 -0.5,32.1667 -0.5,29.5 Z"/></g>
<g><path style="opacity:1" fill="#252720" d="M 8.5,42.5 C 6.14168,41.1261 3.80834,39.7928 1.5,38.5C 1.98672,37.5266 2.48672,36.5266 3,35.5C 4.66647,37.9957 6.49981,40.329 8.5,42.5 Z"/></g>
<g><path style="opacity:1" fill="#2b2a20" d="M 69.5,33.5 C 67.9069,34.3479 66.7403,35.6813 66,37.5C 65.1072,36.2888 64.2739,36.2888 63.5,37.5C 62.6906,39.0709 62.3573,40.7376 62.5,42.5C 61.5,42.5 60.5,42.5 59.5,42.5C 59.719,41.325 59.3857,40.325 58.5,39.5C 56.1318,43.0023 53.1318,43.5023 49.5,41C 50.2524,40.3292 50.5858,39.4959 50.5,38.5C 52.0245,39.1738 53.3578,40.1738 54.5,41.5C 54.8333,41.1667 55.1667,40.8333 55.5,40.5C 54.1468,39.4763 53.4802,38.143 53.5,36.5C 58.2216,37.5712 62.5549,36.5712 66.5,33.5C 65.9724,31.6639 65.3058,29.9972 64.5,28.5C 63.2935,27.1196 63.6269,25.9529 65.5,25C 68.1768,24.7506 70.5101,23.7506 72.5,22C 71.1667,21.6667 69.8333,21.3333 68.5,21C 73.1004,19.4167 74.9337,20.9167 74,25.5C 71.8431,27.8171 70.3431,30.4838 69.5,33.5 Z"/></g>
<g><path style="opacity:1" fill="#151b13" d="M 95.5,48.5 C 95.5,54.1667 95.5,59.8333 95.5,65.5C 91.1656,63.997 88.3322,60.997 87,56.5C 86.586,56.9574 86.086,57.2907 85.5,57.5C 84.3333,55.8333 83.1667,54.1667 82,52.5C 81.4387,53.0219 80.772,53.3552 80,53.5C 75.2893,50.654 70.456,48.9874 65.5,48.5C 67.9328,45.0956 70.2661,41.7622 72.5,38.5C 73.8333,38.5 75.1667,38.5 76.5,38.5C 76.3505,37.448 76.5172,36.448 77,35.5C 77.4017,36.8721 77.9017,38.2054 78.5,39.5C 81.9336,40.6971 85.1003,42.3638 88,44.5C 88.3333,44.1667 88.6667,43.8333 89,43.5C 89.3333,44.5 89.6667,45.5 90,46.5C 91.0875,44.0684 91.5875,44.4017 91.5,47.5C 92.9587,47.4326 94.2921,47.7659 95.5,48.5 Z"/></g>
<g><path style="opacity:1" fill="#1c1e16" d="M 31.5,40.5 C 27.2909,44.5868 24.9575,49.5868 24.5,55.5C 23.8333,55.5 23.5,55.1667 23.5,54.5C 21.4434,50.933 18.7768,47.7663 15.5,45C 16.3366,43.9887 16.67,42.8221 16.5,41.5C 19.681,41.2577 22.681,41.2577 25.5,41.5C 26.4776,41.0233 27.3109,40.3567 28,39.5C 29.0113,40.3366 30.1779,40.67 31.5,40.5 Z"/></g>
<g><path style="opacity:1" fill="#363529" d="M 69.5,33.5 C 69.3215,36.2165 68.8215,38.8832 68,41.5C 66.1581,43.8636 64.3247,46.1969 62.5,48.5C 59.1402,52.3886 55.6402,52.3886 52,48.5C 48.6796,51.2993 45.8463,50.7993 43.5,47C 43.7591,45.7387 44.4258,44.7387 45.5,44C 44.255,43.2086 42.9217,42.7086 41.5,42.5C 41.2865,40.8561 41.6198,39.3561 42.5,38C 40.9069,37.0513 39.5736,35.8846 38.5,34.5C 42.2113,34.6137 45.5446,35.6137 48.5,37.5C 48.8417,38.3382 49.5084,38.6716 50.5,38.5C 50.5858,39.4959 50.2524,40.3292 49.5,41C 53.1318,43.5023 56.1318,43.0023 58.5,39.5C 59.3857,40.325 59.719,41.325 59.5,42.5C 60.5,42.5 61.5,42.5 62.5,42.5C 62.3573,40.7376 62.6906,39.0709 63.5,37.5C 64.2739,36.2888 65.1072,36.2888 66,37.5C 66.7403,35.6813 67.9069,34.3479 69.5,33.5 Z"/></g>
<g><path style="opacity:1" fill="#292a20" d="M 32.5,37.5 C 33.4276,40.597 35.0943,43.2636 37.5,45.5C 37.5,45.8333 37.5,46.1667 37.5,46.5C 35.2543,47.4552 32.921,48.1218 30.5,48.5C 30.3505,49.552 30.5172,50.552 31,51.5C 33.0328,50.9836 33.0328,51.6503 31,53.5C 30.0853,52.6721 29.4186,51.6721 29,50.5C 28.9977,53.0512 28.1644,55.0512 26.5,56.5C 25.5084,56.6716 24.8417,56.3382 24.5,55.5C 24.9575,49.5868 27.2909,44.5868 31.5,40.5C 32.404,39.791 32.7373,38.791 32.5,37.5 Z"/></g>
<g><path style="opacity:1" fill="#363529" d="M 36.5,19.5 C 37.6527,20.3132 37.6527,21.3132 36.5,22.5C 36.9569,23.2975 37.6236,23.6309 38.5,23.5C 37.5816,27.1218 37.5816,30.7884 38.5,34.5C 37.9569,34.56 37.6236,34.8933 37.5,35.5C 38.2634,36.7193 39.2634,37.7193 40.5,38.5C 38.9716,39.8613 37.3049,41.028 35.5,42C 36.9733,42.7096 37.6399,43.8762 37.5,45.5C 35.0943,43.2636 33.4276,40.597 32.5,37.5C 31.6758,34.2356 31.3424,30.9023 31.5,27.5C 33.1947,25.4649 34.528,23.1316 35.5,20.5C 35.5,19.8333 35.8333,19.5 36.5,19.5 Z"/></g>
<g><path style="opacity:1" fill="#797367" d="M -0.5,40.5 C 1.90315,40.393 3.73649,41.393 5,43.5C 6.68717,47.5552 8.85383,51.2218 11.5,54.5C 9.18618,52.5227 6.85285,50.5227 4.5,48.5C 2.95467,47.5481 1.28801,47.2148 -0.5,47.5C -0.5,45.1667 -0.5,42.8333 -0.5,40.5 Z"/></g>
<g><path style="opacity:1" fill="#464437" d="M 38.5,34.5 C 39.5736,35.8846 40.9069,37.0513 42.5,38C 41.6198,39.3561 41.2865,40.8561 41.5,42.5C 42.2341,43.7079 42.5674,45.0413 42.5,46.5C 40.8333,46.5 39.1667,46.5 37.5,46.5C 37.5,46.1667 37.5,45.8333 37.5,45.5C 37.6399,43.8762 36.9733,42.7096 35.5,42C 37.3049,41.028 38.9716,39.8613 40.5,38.5C 39.2634,37.7193 38.2634,36.7193 37.5,35.5C 37.6236,34.8933 37.9569,34.56 38.5,34.5 Z"/></g>
<g><path style="opacity:1" fill="#878074" d="M -0.5,47.5 C 1.28801,47.2148 2.95467,47.5481 4.5,48.5C 6.85285,50.5227 9.18618,52.5227 11.5,54.5C 12.1667,55.8333 13.1667,56.8333 14.5,57.5C 14.5,58.1667 14.5,58.8333 14.5,59.5C 11.1575,56.4979 7.82416,53.4979 4.5,50.5C 4.32454,52.9729 2.65787,54.3062 -0.5,54.5C -0.5,52.1667 -0.5,49.8333 -0.5,47.5 Z"/></g>
<g><path style="opacity:1" fill="#1e1e16" d="M 65.5,48.5 C 70.456,48.9874 75.2893,50.654 80,53.5C 80.772,53.3552 81.4387,53.0219 82,52.5C 83.1667,54.1667 84.3333,55.8333 85.5,57.5C 86.086,57.2907 86.586,56.9574 87,56.5C 88.3322,60.997 91.1656,63.997 95.5,65.5C 95.5,75.5 95.5,85.5 95.5,95.5C 94.5,95.5 93.5,95.5 92.5,95.5C 91.7659,94.2921 91.4326,92.9587 91.5,91.5C 94.9067,91.8747 95.4067,90.8747 93,88.5C 90.8239,88.0116 88.9906,87.0116 87.5,85.5C 87.9377,84.4937 88.6043,84.4937 89.5,85.5C 90.4287,84.3112 90.762,82.9778 90.5,81.5C 88.5082,81.3285 86.8415,81.9951 85.5,83.5C 85.1667,82.8333 84.8333,82.1667 84.5,81.5C 86.1467,79.957 86.98,78.2903 87,76.5C 87.4226,77.9561 88.2559,78.4561 89.5,78C 88.7362,75.9307 88.2362,73.764 88,71.5C 87.6667,72.8333 87.3333,74.1667 87,75.5C 85.3181,74.1354 85.1514,72.6354 86.5,71C 84.6332,70.2888 83.1332,70.7888 82,72.5C 80.984,71.3659 80.3173,71.6992 80,73.5C 79.7914,71.3114 80.1247,69.3114 81,67.5C 76.9038,69.3491 74.4038,67.6824 73.5,62.5C 72.2888,63.2739 72.2888,64.1072 73.5,65C 72.175,64.8516 71.0084,65.0183 70,65.5C 69.6667,64.5 69.3333,63.5 69,62.5C 67.927,63.2797 66.7604,63.113 65.5,62C 66.2598,60.5589 66.9264,59.0589 67.5,57.5C 66.9953,56.0815 65.9953,55.4148 64.5,55.5C 64.298,53.0504 64.6314,50.717 65.5,48.5 Z"/></g>
<g><path style="opacity:1" fill="#1e1d16" d="M 53.5,60.5 C 54.7868,61.8714 55.4535,63.7047 55.5,66C 54.5216,75.737 53.1883,85.5704 51.5,95.5C 48.5,95.5 45.5,95.5 42.5,95.5C 42.8718,89.57 42.2051,83.9033 40.5,78.5C 40.47,75.1485 39.1367,72.4818 36.5,70.5C 35.5589,68.2279 34.2255,66.2279 32.5,64.5C 31.8333,63.5 31.1667,62.5 30.5,61.5C 30.1667,60.8333 29.8333,60.1667 29.5,59.5C 31.0744,59.9371 32.2411,60.9371 33,62.5C 33.5,62 34,61.5 34.5,61C 32.8078,59.5993 32.1412,57.7659 32.5,55.5C 34.9424,55.6463 35.6091,54.813 34.5,53C 35.7932,52.51 37.1266,52.3433 38.5,52.5C 38.5,53.5 38.5,54.5 38.5,55.5C 41.4898,54.2171 44.1565,54.2171 46.5,55.5C 47.6653,58.7223 49.9987,60.389 53.5,60.5 Z"/></g>
<g><path style="opacity:1" fill="#24241c" d="M 41.5,42.5 C 42.9217,42.7086 44.255,43.2086 45.5,44C 44.4258,44.7387 43.7591,45.7387 43.5,47C 45.8463,50.7993 48.6796,51.2993 52,48.5C 55.6402,52.3886 59.1402,52.3886 62.5,48.5C 62.5,51.8333 62.5,55.1667 62.5,58.5C 61.5,58.5 60.5,58.5 59.5,58.5C 59.1782,55.188 57.8449,55.188 55.5,58.5C 53.7859,57.3915 53.1192,58.0582 53.5,60.5C 49.9987,60.389 47.6653,58.7223 46.5,55.5C 44.1565,54.2171 41.4898,54.2171 38.5,55.5C 38.5,54.5 38.5,53.5 38.5,52.5C 37.1266,52.3433 35.7932,52.51 34.5,53C 35.6091,54.813 34.9424,55.6463 32.5,55.5C 32.1412,57.7659 32.8078,59.5993 34.5,61C 34,61.5 33.5,62 33,62.5C 32.2411,60.9371 31.0744,59.9371 29.5,59.5C 28.1667,58.8333 27.1667,57.8333 26.5,56.5C 28.1644,55.0512 28.9977,53.0512 29,50.5C 29.4186,51.6721 30.0853,52.6721 31,53.5C 33.0328,51.6503 33.0328,50.9836 31,51.5C 30.5172,50.552 30.3505,49.552 30.5,48.5C 32.921,48.1218 35.2543,47.4552 37.5,46.5C 39.1667,46.5 40.8333,46.5 42.5,46.5C 42.5674,45.0413 42.2341,43.7079 41.5,42.5 Z"/></g>
<g><path style="opacity:1" fill="#978e83" d="M 14.5,59.5 C 14.5,60.1667 14.5,60.8333 14.5,61.5C 8.5274,56.4884 5.19407,57.8217 4.5,65.5C 3.99839,66.521 3.33172,66.6877 2.5,66C 3.27972,64.927 3.11305,63.7604 2,62.5C 1.75987,64.8516 0.92654,66.8516 -0.5,68.5C -0.5,63.8333 -0.5,59.1667 -0.5,54.5C 2.65787,54.3062 4.32454,52.9729 4.5,50.5C 7.82416,53.4979 11.1575,56.4979 14.5,59.5 Z"/></g>
<g><path style="opacity:1" fill="#4b4c42" d="M -0.5,37.5 C 0.166667,37.8333 0.833333,38.1667 1.5,38.5C 3.80834,39.7928 6.14168,41.1261 8.5,42.5C 12.8983,47.2295 17.8983,51.2295 23.5,54.5C 23.5,55.1667 23.8333,55.5 24.5,55.5C 24.8417,56.3382 25.5084,56.6716 26.5,56.5C 27.1667,57.8333 28.1667,58.8333 29.5,59.5C 29.8333,60.1667 30.1667,60.8333 30.5,61.5C 28.7074,61.8836 27.7074,63.0503 27.5,65C 28.3295,66.4651 28.4962,67.9651 28,69.5C 25.3932,65.5492 23.7265,61.2159 23,56.5C 20.035,54.8537 17.3684,52.8537 15,50.5C 14.8782,52.2816 15.3782,53.9482 16.5,55.5C 15.1667,55.5 14.5,56.1667 14.5,57.5C 13.1667,56.8333 12.1667,55.8333 11.5,54.5C 8.85383,51.2218 6.68717,47.5552 5,43.5C 3.73649,41.393 1.90315,40.393 -0.5,40.5C -0.5,39.5 -0.5,38.5 -0.5,37.5 Z"/></g>
<g><path style="opacity:1" fill="#65645a" d="M 14.5,57.5 C 16.9998,60.4937 18.9998,63.827 20.5,67.5C 18.1394,65.8061 16.1394,63.8061 14.5,61.5C 14.5,60.8333 14.5,60.1667 14.5,59.5C 14.5,58.8333 14.5,58.1667 14.5,57.5 Z"/></g>
<g><path style="opacity:1" fill="#2f302a" d="M 16.5,55.5 C 19.4956,62.1545 23.4956,68.1545 28.5,73.5C 27.8333,73.5 27.5,73.8333 27.5,74.5C 26.8333,73.8333 26.1667,73.1667 25.5,72.5C 24.1363,70.8089 22.803,69.1423 21.5,67.5C 21.1667,67.5 20.8333,67.5 20.5,67.5C 18.9998,63.827 16.9998,60.4937 14.5,57.5C 14.5,56.1667 15.1667,55.5 16.5,55.5 Z"/></g>
<g><path style="opacity:1" fill="#5c5b50" d="M 30.5,61.5 C 31.1667,62.5 31.8333,63.5 32.5,64.5C 31.5041,64.5858 30.6708,64.2524 30,63.5C 29.8333,64 29.6667,64.5 29.5,65C 30.9584,69.0427 31.6251,73.2094 31.5,77.5C 30.0256,76.5637 29.0256,75.2303 28.5,73.5C 23.4956,68.1545 19.4956,62.1545 16.5,55.5C 15.3782,53.9482 14.8782,52.2816 15,50.5C 17.3684,52.8537 20.035,54.8537 23,56.5C 23.7265,61.2159 25.3932,65.5492 28,69.5C 28.4962,67.9651 28.3295,66.4651 27.5,65C 27.7074,63.0503 28.7074,61.8836 30.5,61.5 Z"/></g>
<g><path style="opacity:1" fill="#24221c" d="M 62.5,58.5 C 62.5,59.8333 62.5,61.1667 62.5,62.5C 60.6778,67.2055 59.6778,72.2055 59.5,77.5C 58.4478,80.89 57.4478,84.39 56.5,88C 58.5,89.3333 60.5,90.6667 62.5,92C 60.9452,93.6458 59.2785,93.9791 57.5,93C 56.7476,93.6708 56.4142,94.5041 56.5,95.5C 54.8333,95.5 53.1667,95.5 51.5,95.5C 53.1883,85.5704 54.5216,75.737 55.5,66C 55.4535,63.7047 54.7868,61.8714 53.5,60.5C 53.1192,58.0582 53.7859,57.3915 55.5,58.5C 57.8449,55.188 59.1782,55.188 59.5,58.5C 60.5,58.5 61.5,58.5 62.5,58.5 Z"/></g>
<g><path style="opacity:1" fill="#a3988c" d="M 14.5,61.5 C 16.1394,63.8061 18.1394,65.8061 20.5,67.5C 20.8333,67.5 21.1667,67.5 21.5,67.5C 21.1105,71.3528 22.4438,74.3528 25.5,76.5C 25.5,76.8333 25.5,77.1667 25.5,77.5C 25.5,78.1667 25.5,78.8333 25.5,79.5C 24.8333,79.5 24.1667,79.5 23.5,79.5C 23.5,78.8333 23.1667,78.5 22.5,78.5C 21.454,75.8097 20.454,73.1431 19.5,70.5C 18.448,70.6495 17.448,70.4828 16.5,70C 16.1667,69 15.8333,68 15.5,67C 14.552,66.5172 13.552,66.3505 12.5,66.5C 10.8412,70.6344 9.00788,74.6344 7,78.5C 5.5,79.3333 4.33333,80.5 3.5,82C 4.04047,84.1075 5.04047,86.2742 6.5,88.5C 7.5,88.5 8.5,88.5 9.5,88.5C 9.33982,90.1992 9.50649,91.8659 10,93.5C 12.4272,92.433 12.9272,93.0997 11.5,95.5C 7.5,95.5 3.5,95.5 -0.5,95.5C -0.5,86.5 -0.5,77.5 -0.5,68.5C 0.92654,66.8516 1.75987,64.8516 2,62.5C 3.11305,63.7604 3.27972,64.927 2.5,66C 3.33172,66.6877 3.99839,66.521 4.5,65.5C 5.19407,57.8217 8.5274,56.4884 14.5,61.5 Z"/></g>
<g><path style="opacity:1" fill="#68665b" d="M 32.5,64.5 C 34.2255,66.2279 35.5589,68.2279 36.5,70.5C 36.4107,73.7086 36.744,76.8752 37.5,80C 37.4753,81.876 36.8086,83.376 35.5,84.5C 33.9291,82.3649 32.5957,80.0316 31.5,77.5C 31.6251,73.2094 30.9584,69.0427 29.5,65C 29.6667,64.5 29.8333,64 30,63.5C 30.6708,64.2524 31.5041,64.5858 32.5,64.5 Z"/></g>
<g><path style="opacity:1" fill="#afa398" d="M 22.5,78.5 C 20.0876,78.756 18.4209,77.756 17.5,75.5C 16.1239,76.8419 14.7906,78.1752 13.5,79.5C 15.2341,83.2495 14.5675,86.4162 11.5,89C 12.3333,89.8333 13.1667,90.6667 14,91.5C 14.8928,90.2888 15.7261,90.2888 16.5,91.5C 15.3698,92.6223 14.7031,93.9557 14.5,95.5C 13.5,95.5 12.5,95.5 11.5,95.5C 12.9272,93.0997 12.4272,92.433 10,93.5C 9.50649,91.8659 9.33982,90.1992 9.5,88.5C 8.5,88.5 7.5,88.5 6.5,88.5C 5.04047,86.2742 4.04047,84.1075 3.5,82C 4.33333,80.5 5.5,79.3333 7,78.5C 9.00788,74.6344 10.8412,70.6344 12.5,66.5C 13.552,66.3505 14.552,66.5172 15.5,67C 15.8333,68 16.1667,69 16.5,70C 17.448,70.4828 18.448,70.6495 19.5,70.5C 20.454,73.1431 21.454,75.8097 22.5,78.5 Z"/></g>
<g><path style="opacity:1" fill="#6f6b63" d="M 21.5,67.5 C 22.803,69.1423 24.1363,70.8089 25.5,72.5C 25.5,73.8333 25.5,75.1667 25.5,76.5C 22.4438,74.3528 21.1105,71.3528 21.5,67.5 Z"/></g>
<g><path style="opacity:1" fill="#4e4e43" d="M 36.5,70.5 C 39.1367,72.4818 40.47,75.1485 40.5,78.5C 40.8182,83.0323 40.4849,87.3656 39.5,91.5C 38.1667,89.1667 36.8333,86.8333 35.5,84.5C 36.8086,83.376 37.4753,81.876 37.5,80C 36.744,76.8752 36.4107,73.7086 36.5,70.5 Z"/></g>
<g><path style="opacity:1" fill="#232416" d="M 83.5,95.5 C 81.8333,95.5 80.1667,95.5 78.5,95.5C 79.7829,92.5102 79.7829,89.8435 78.5,87.5C 77.5,84.8333 76.5,84.8333 75.5,87.5C 74.2655,85.6017 74.5989,83.935 76.5,82.5C 75.7542,81.2638 75.4208,79.9305 75.5,78.5C 74.5,78.5 73.5,78.5 72.5,78.5C 72.4622,71.9586 71.7955,71.9586 70.5,78.5C 69.3112,76.6366 67.9779,74.9699 66.5,73.5C 66.4614,72.2438 66.9614,71.2438 68,70.5C 69.6995,71.4061 71.5328,71.7394 73.5,71.5C 73.7286,73.433 74.5619,75.0997 76,76.5C 77.3425,75.0977 78.1758,75.4311 78.5,77.5C 78.1822,78.6473 77.5156,79.4806 76.5,80C 77.448,80.4828 78.448,80.6495 79.5,80.5C 79.2312,84.771 79.5646,89.1044 80.5,93.5C 82.1788,93.2852 83.1788,93.9519 83.5,95.5 Z"/></g>
<g><path style="opacity:1" fill="#1f2219" d="M 64.5,55.5 C 65.9953,55.4148 66.9953,56.0815 67.5,57.5C 66.9264,59.0589 66.2598,60.5589 65.5,62C 66.7604,63.113 67.927,63.2797 69,62.5C 69.3333,63.5 69.6667,64.5 70,65.5C 71.0084,65.0183 72.175,64.8516 73.5,65C 72.2888,64.1072 72.2888,63.2739 73.5,62.5C 74.4038,67.6824 76.9038,69.3491 81,67.5C 80.1247,69.3114 79.7914,71.3114 80,73.5C 80.3173,71.6992 80.984,71.3659 82,72.5C 83.1332,70.7888 84.6332,70.2888 86.5,71C 85.1514,72.6354 85.3181,74.1354 87,75.5C 87.3333,74.1667 87.6667,72.8333 88,71.5C 88.2362,73.764 88.7362,75.9307 89.5,78C 88.2559,78.4561 87.4226,77.9561 87,76.5C 86.98,78.2903 86.1467,79.957 84.5,81.5C 84.8333,82.1667 85.1667,82.8333 85.5,83.5C 86.8415,81.9951 88.5082,81.3285 90.5,81.5C 90.762,82.9778 90.4287,84.3112 89.5,85.5C 88.6043,84.4937 87.9377,84.4937 87.5,85.5C 88.9906,87.0116 90.8239,88.0116 93,88.5C 95.4067,90.8747 94.9067,91.8747 91.5,91.5C 91.4326,92.9587 91.7659,94.2921 92.5,95.5C 89.5,95.5 86.5,95.5 83.5,95.5C 83.1788,93.9519 82.1788,93.2852 80.5,93.5C 79.5646,89.1044 79.2312,84.771 79.5,80.5C 78.448,80.6495 77.448,80.4828 76.5,80C 77.5156,79.4806 78.1822,78.6473 78.5,77.5C 78.1758,75.4311 77.3425,75.0977 76,76.5C 74.5619,75.0997 73.7286,73.433 73.5,71.5C 71.5328,71.7394 69.6995,71.4061 68,70.5C 66.9614,71.2438 66.4614,72.2438 66.5,73.5C 65.51,70.2613 64.51,66.928 63.5,63.5C 64.388,60.9455 64.7214,58.2788 64.5,55.5 Z"/></g>
<g><path style="opacity:1" fill="#1d201a" d="M 28.5,73.5 C 29.0256,75.2303 30.0256,76.5637 31.5,77.5C 32.5957,80.0316 33.9291,82.3649 35.5,84.5C 36.8333,86.8333 38.1667,89.1667 39.5,91.5C 40.6005,92.6049 41.2671,93.9382 41.5,95.5C 40.8333,95.5 40.1667,95.5 39.5,95.5C 38.5254,93.2048 37.1921,91.2048 35.5,89.5C 33.1005,84.3682 30.4338,79.3682 27.5,74.5C 27.5,73.8333 27.8333,73.5 28.5,73.5 Z"/></g>
<g><path style="opacity:1" fill="#171913" d="M 62.5,62.5 C 62.5,63.1667 62.8333,63.5 63.5,63.5C 64.51,66.928 65.51,70.2613 66.5,73.5C 66.9801,78.8221 67.3135,84.1554 67.5,89.5C 65.2144,88.6598 64.881,87.1598 66.5,85C 64.6963,79.1745 62.5297,79.0078 60,84.5C 59.5034,82.1902 59.3367,79.8568 59.5,77.5C 59.6778,72.2055 60.6778,67.2055 62.5,62.5 Z"/></g>
<g><path style="opacity:1" fill="#55554c" d="M 25.5,72.5 C 26.1667,73.1667 26.8333,73.8333 27.5,74.5C 30.4338,79.3682 33.1005,84.3682 35.5,89.5C 35.1667,89.5 34.8333,89.5 34.5,89.5C 31.9973,85.1772 28.9973,81.1772 25.5,77.5C 25.5,77.1667 25.5,76.8333 25.5,76.5C 25.5,75.1667 25.5,73.8333 25.5,72.5 Z"/></g>
<g><path style="opacity:1" fill="#888176" d="M 25.5,77.5 C 28.9973,81.1772 31.9973,85.1772 34.5,89.5C 34.5,90.5 34.5,91.5 34.5,92.5C 31.1342,88.4594 28.1342,84.126 25.5,79.5C 25.5,78.8333 25.5,78.1667 25.5,77.5 Z"/></g>
<g><path style="opacity:1" fill="#baada2" d="M 22.5,78.5 C 23.1667,78.5 23.5,78.8333 23.5,79.5C 22.8333,79.5 22.5,79.8333 22.5,80.5C 23.3058,81.9972 23.9724,83.6639 24.5,85.5C 28.2917,87.75 29.9583,91.0833 29.5,95.5C 24.5,95.5 19.5,95.5 14.5,95.5C 14.7031,93.9557 15.3698,92.6223 16.5,91.5C 15.7261,90.2888 14.8928,90.2888 14,91.5C 13.1667,90.6667 12.3333,89.8333 11.5,89C 14.5675,86.4162 15.2341,83.2495 13.5,79.5C 14.7906,78.1752 16.1239,76.8419 17.5,75.5C 18.4209,77.756 20.0876,78.756 22.5,78.5 Z"/></g>
<g><path style="opacity:1" fill="#d1c6be" d="M 22.5,80.5 C 20.7986,82.4233 18.7986,82.7567 16.5,81.5C 18.1331,79.261 20.1331,78.9277 22.5,80.5 Z"/></g>
<g><path style="opacity:1" fill="#3d3d35" d="M 40.5,78.5 C 42.2051,83.9033 42.8718,89.57 42.5,95.5C 42.1667,95.5 41.8333,95.5 41.5,95.5C 41.2671,93.9382 40.6005,92.6049 39.5,91.5C 40.4849,87.3656 40.8182,83.0323 40.5,78.5 Z"/></g>
<g><path style="opacity:1" fill="#1d1d16" d="M 59.5,77.5 C 59.3367,79.8568 59.5034,82.1902 60,84.5C 62.5297,79.0078 64.6963,79.1745 66.5,85C 64.881,87.1598 65.2144,88.6598 67.5,89.5C 67.6747,91.6208 67.3414,93.6208 66.5,95.5C 63.1667,95.5 59.8333,95.5 56.5,95.5C 56.4142,94.5041 56.7476,93.6708 57.5,93C 59.2785,93.9791 60.9452,93.6458 62.5,92C 60.5,90.6667 58.5,89.3333 56.5,88C 57.4478,84.39 58.4478,80.89 59.5,77.5 Z"/></g>
<g><path style="opacity:1" fill="#27261e" d="M 66.5,73.5 C 67.9779,74.9699 69.3112,76.6366 70.5,78.5C 71.7955,71.9586 72.4622,71.9586 72.5,78.5C 73.5,78.5 74.5,78.5 75.5,78.5C 75.4208,79.9305 75.7542,81.2638 76.5,82.5C 74.5989,83.935 74.2655,85.6017 75.5,87.5C 76.5,84.8333 77.5,84.8333 78.5,87.5C 79.7829,89.8435 79.7829,92.5102 78.5,95.5C 74.5,95.5 70.5,95.5 66.5,95.5C 67.3414,93.6208 67.6747,91.6208 67.5,89.5C 67.3135,84.1554 66.9801,78.8221 66.5,73.5 Z"/></g>
<g><path style="opacity:1" fill="#ada196" d="M 22.5,80.5 C 22.5,79.8333 22.8333,79.5 23.5,79.5C 24.1667,79.5 24.8333,79.5 25.5,79.5C 28.1342,84.126 31.1342,88.4594 34.5,92.5C 34.5,93.5 34.5,94.5 34.5,95.5C 32.8333,95.5 31.1667,95.5 29.5,95.5C 29.9583,91.0833 28.2917,87.75 24.5,85.5C 23.9724,83.6639 23.3058,81.9972 22.5,80.5 Z"/></g>
<g><path style="opacity:1" fill="#6e685e" d="M 34.5,89.5 C 34.8333,89.5 35.1667,89.5 35.5,89.5C 37.1921,91.2048 38.5254,93.2048 39.5,95.5C 37.8333,95.5 36.1667,95.5 34.5,95.5C 34.5,94.5 34.5,93.5 34.5,92.5C 34.5,91.5 34.5,90.5 34.5,89.5 Z"/></g>
</svg>
